<svg width="213" height="229" viewBox="0 0 213 229" fill="none" xmlns="http://www.w3.org/2000/svg">
<path d="M0 0V8.51345C0.120061 8.7754 0.32744 9.03008 0.341993 9.29931C0.483884 12.3591 0.582116 15.4224 0.716731 18.4858C0.814963 20.7488 0.949577 23.0118 1.066 25.2784C1.24427 28.7493 1.42255 32.2165 1.60082 35.6874C1.71724 37.9212 1.8373 40.1551 1.95373 42.389C2.132 45.7107 2.31027 49.0324 2.48491 52.3541C2.60497 54.588 2.71776 56.8218 2.84146 59.0557C3.01609 62.2901 3.198 65.5208 3.37627 68.7552C3.4927 70.8727 3.61276 72.9865 3.72918 75.1039C3.90746 78.3674 4.08209 81.6309 4.264 84.8908C4.435 87.9178 4.61691 90.9411 4.79154 93.9681C4.97346 97.1116 5.14445 100.255 5.33 103.402C5.501 106.28 5.66472 109.158 5.86118 112.036C6.07584 115.175 6.34143 118.308 6.55245 121.448C6.70161 123.649 6.7671 125.857 6.93082 128.058C7.13092 130.754 7.30192 133.457 7.64392 136.135C8.16054 140.185 8.699 144.234 9.43392 148.247C10.3762 153.391 11.8752 158.405 13.858 163.24C15.5025 167.249 17.2925 171.211 19.2462 175.082C21.4765 179.506 24.0669 183.745 27.1339 187.652C29.5861 190.774 32.1292 193.827 34.716 196.835C37.8012 200.423 41.323 203.555 44.9467 206.593C51.3863 211.989 58.4445 216.402 66.0193 219.985C73.0592 223.318 80.4121 225.752 88.0742 227.189C90.8138 227.702 93.5898 228.03 96.3475 228.452C96.4749 228.47 96.5876 228.586 96.8059 228.724C103.358 228.794 109.813 228.794 116.263 228.794C116.463 228.677 116.656 228.484 116.871 228.452C119.396 228.066 121.939 227.775 124.453 227.32C128.924 226.516 133.33 225.399 137.587 223.816C140.927 222.572 144.216 221.171 147.479 219.738C151.809 217.835 155.931 215.51 159.798 212.804C163.218 210.41 166.503 207.812 169.749 205.181C171.852 203.479 173.907 201.674 175.745 199.695C178.761 196.435 181.675 193.07 184.469 189.617C189.413 183.505 193.31 176.723 196.603 169.607C199.731 162.843 202.165 155.829 203.592 148.498C204.257 145.067 204.854 141.618 205.323 138.158C205.651 135.742 205.713 133.294 205.902 130.86C206.127 127.96 206.371 125.06 206.597 122.157C206.677 121.102 206.731 120.043 206.786 118.985C206.968 115.576 207.135 112.163 207.324 108.754C207.488 105.785 207.677 102.82 207.852 99.8511C208.034 96.7368 208.208 93.6225 208.387 90.5082C208.565 87.3938 208.743 84.2795 208.918 81.1652C209.096 77.9636 209.274 74.7583 209.453 71.553C209.631 68.3186 209.809 65.0879 209.984 61.8535C210.166 58.5027 210.34 55.1519 210.519 51.8011C210.635 49.5963 210.755 47.3915 210.872 45.1868C211.05 41.7778 211.228 38.3651 211.406 34.9561C211.523 32.7513 211.643 30.5466 211.759 28.3418C211.941 24.8709 212.116 21.4037 212.294 17.9328C212.411 15.6698 212.523 13.4032 212.654 11.1403C212.665 10.9292 212.789 10.7219 212.931 10.4126C213 6.88353 213 3.45268 213 0.0145529H0V0ZM191.804 169.381C189.926 174.322 187.511 178.986 184.625 183.407C176.116 196.439 164.804 206.411 151.223 213.884C141.589 219.185 131.311 222.667 120.549 224.85C114.102 226.156 107.641 226.098 101.135 225.621C94.1937 225.112 87.3502 224.027 80.6377 222.183C67.2599 218.508 55.2574 212.251 44.7975 203.082C39.2929 198.258 34.5159 192.808 30.3574 186.797C27.4468 182.53 24.9437 178.182 22.9572 173.543C22.255 171.899 22.3023 171.641 23.8522 170.684C26.3007 169.17 29.0294 168.384 31.8127 167.791C38.9145 166.278 46.0381 165.921 53.1545 167.704C56.8218 168.625 60.1617 170.2 62.9304 172.852C63.0105 172.929 63.1196 172.98 63.1596 173.009C64.7823 171.481 66.2994 169.902 67.973 168.508C76.5992 161.323 86.397 156.495 97.359 154.043C102.816 152.824 108.346 152.376 113.92 152.678C124.325 153.238 133.963 156.393 142.993 161.515C147.479 164.062 151.692 167.006 155.665 170.291C156.116 170.666 156.436 170.72 156.968 170.389C161.614 167.475 166.569 165.292 171.986 164.273C177.382 163.258 182.708 163.291 187.751 165.79C189.086 166.453 190.257 167.446 191.513 168.268C191.964 168.563 192 168.872 191.807 169.378L191.804 169.381ZM194.041 165.237C190.941 164.248 187.965 163.182 184.927 162.356C178.964 160.733 172.972 160.511 167.016 162.469C163.775 163.804 160.635 165.012 157.564 166.387C156.185 167.002 155.28 166.893 154.079 165.856C146.879 159.62 138.817 154.828 129.688 151.951C116.871 147.912 104.071 148.221 91.3049 152.194C81.1543 155.352 72.0915 160.508 63.9309 167.282C63.3452 167.77 62.9413 167.828 62.2464 167.486C55.8868 164.35 49.1452 163.255 42.1016 163.753C34.9925 164.255 28.2217 166.198 21.5238 168.479C21.2472 168.574 20.9744 168.661 20.6433 168.774C19.0861 165.703 17.5399 162.654 15.91 159.438C17.9874 158.481 19.9775 157.466 22.044 156.633C29.8444 153.486 37.9431 152.14 46.3437 152.853C51.7574 153.311 56.9237 154.697 61.7407 157.255C62.3701 157.59 62.7485 157.506 63.276 157.08C72.3971 149.724 82.5332 144.299 94.0118 141.753C114.404 137.23 133.45 140.574 150.957 152.111C152.213 152.94 153.399 153.879 154.566 154.836C155.123 155.29 155.585 155.443 156.306 155.199C159.434 154.137 162.578 153.111 165.736 152.132C173.492 149.735 181.206 150.164 188.831 152.715C191.789 153.704 194.671 154.927 197.705 156.091C196.421 159.303 195.209 162.327 194.041 165.241V165.237ZM86.2187 129.565C87.9214 129.721 89.6204 129.965 91.3231 130.132C92.0253 130.201 92.7384 130.143 93.4952 130.296C93.1095 130.405 92.7275 130.518 92.3418 130.627C90.1589 130.58 88.1288 130.532 86.0986 130.434C85.8803 130.423 85.6766 130.136 85.4656 129.979C85.7166 129.834 85.9822 129.546 86.2187 129.568V129.565ZM85.3637 127.116C85.5202 126.156 86.055 126.327 86.5316 126.432C88.1106 126.774 89.6823 127.156 91.2686 127.476C91.9562 127.614 92.6693 127.647 93.5897 127.749C91.9744 128.226 90.5482 128.036 89.1184 127.851C87.7686 127.589 86.5753 127.356 85.3637 127.116ZM87.8268 132.119C89.9042 132.224 91.9816 132.391 94.1682 132.552C93.5024 132.733 92.9021 132.901 92.2982 133.065C90.6683 133.086 89.1911 133.108 87.714 133.065C87.4775 133.057 87.252 132.744 87.0228 132.577C87.292 132.417 87.5648 132.108 87.8268 132.122V132.119ZM88.2961 104.221C90.2244 104.323 92.189 104.413 94.1537 104.541C95.1833 104.606 96.2166 104.694 97.2353 104.861C97.9302 104.974 98.4504 104.814 98.8579 104.264C99.2981 103.671 99.742 103.082 100.164 102.482C101.194 101.015 102.533 100.35 104.359 100.713C105.512 100.943 106.695 101.044 107.895 101.336C106.64 101.63 105.403 102.07 104.133 102.183C102.573 102.321 101.481 103.053 100.59 104.232C99.9421 105.432 99.0689 105.709 97.8356 105.64C93.8844 105.425 89.9261 105.345 85.9713 105.214C85.7748 105.207 85.582 105.181 85.1527 105.148C86.6953 103.082 88.1179 101.175 89.544 99.2654C89.6605 99.3309 89.7805 99.3927 89.8969 99.4582C88.8601 100.863 87.7649 102.249 88.2998 104.228L88.2961 104.221ZM100.462 116.831C101.194 116.754 101.939 116.813 102.678 116.816C105.57 116.82 108.285 116.82 110.766 116.82C109.838 117.606 100.881 118.352 99.3527 117.417C99.8038 117.169 100.12 116.867 100.466 116.831H100.462ZM156.047 54.7844C156.273 55.1883 156.629 55.5703 156.706 56.0032C156.997 57.6295 157.179 59.2704 157.437 60.9039C157.644 62.2137 157.834 63.5307 158.172 64.8077C158.31 65.3207 158.75 65.8264 159.187 66.1721C159.896 66.7396 160.057 66.9034 159.896 68.1222C159.846 67.9803 159.838 67.7838 159.736 67.7074C159.456 67.4964 159.14 67.3363 158.838 67.1544C158.619 67.5728 158.179 68.013 158.219 68.4023C158.357 69.7557 158.87 70.9709 160.137 71.724C159.165 72.3098 158.769 72.2697 158.106 71.4075C157.844 72.5535 157.546 73.5795 157.39 74.6237C157.193 75.9298 156.993 77.2578 157.015 78.5712C157.048 80.2884 157.885 81.7219 159.223 83.0243C157.786 83.3118 157.117 82.1475 156 81.7801C155.836 83.3118 155.662 84.8216 155.516 86.3315C155.443 87.0955 155.425 87.8668 155.374 88.6308C155.298 89.7732 155.647 90.701 156.724 91.3159C155.4 91.3777 154.21 91.1558 153.14 90.1589C152.827 91.858 152.329 93.2805 150.641 94.2956C150.888 93.5497 150.961 92.9603 151.248 92.5092C153.424 89.1075 154.414 85.2982 155.185 81.4053C156.738 72.4989 157.04 63.709 156.051 54.7808L156.047 54.7844ZM147.745 37.1208C148.283 38.2341 148.713 39.2637 149.153 40.3152C148.258 40.3552 147.206 40.2606 146.279 39.6749C146.068 39.5403 145.86 39.06 145.944 38.8526C146.275 38.0304 146.752 37.2845 147.745 37.1172V37.1208ZM150.492 60.8639C150.455 60.8966 150.47 61.0313 150.484 61.1695C149.68 62.5266 148.509 63.2215 147.337 63.9891C146.959 63.4179 147.134 63.1196 147.57 62.8431C148.432 62.2937 149.276 61.7116 150.128 61.144C150.292 61.0094 150.35 60.9367 150.408 60.8675C150.503 60.7984 150.557 60.813 150.615 60.8275C150.575 60.8421 150.535 60.853 150.492 60.8675V60.8639ZM151.012 63.7963C151.179 63.6653 151.237 63.5962 151.296 63.5271C151.427 63.4943 151.467 63.4689 151.507 63.4434C151.488 63.4798 151.47 63.5162 151.452 63.5525C151.368 63.6144 151.365 63.7308 151.361 63.8472C150.473 65.3135 149.156 66.0557 147.858 66.8779C147.446 66.2521 147.65 65.9465 148.13 65.6554C149.105 65.0624 150.055 64.4185 151.012 63.7963ZM147.33 60.7438C147.235 60.6674 147.137 60.591 147.043 60.5146C147.228 60.2418 147.355 59.8889 147.607 59.7106C148.451 59.1212 149.338 58.5936 150.211 58.0443C150.375 57.9861 150.415 57.9424 150.455 57.8987C150.459 57.946 150.466 57.9933 150.473 58.0406C149.731 59.4195 148.469 60.0016 147.334 60.7438H147.33ZM148.927 56.7163C148.349 57.2038 147.861 57.6004 147.374 58.0006C147.294 57.957 147.217 57.9133 147.137 57.8696C147.199 57.6004 147.166 57.2184 147.334 57.0801C148.156 56.4143 149.036 55.8177 150.033 55.3265C149.662 55.7886 149.295 56.2506 148.924 56.7163H148.927ZM148.16 76.8867C148.181 77.0395 148.192 77.3342 148.054 77.4433C147.028 78.2583 145.973 79.0368 144.914 79.8373C144.328 79.277 144.445 78.9968 144.951 78.7203C146.031 78.1273 147.09 77.5015 148.16 76.8903V76.8867ZM145.071 80.6267C146.071 80.0956 147.101 79.6262 148.174 79.2151C147.563 80.2302 146.511 80.6704 145.555 81.2307C145.176 81.2853 144.921 81.2816 144.67 81.278C144.801 81.0524 144.878 80.7286 145.071 80.6231V80.6267ZM147.756 74.6892C147.301 74.0234 147.37 73.6741 147.905 73.3212C148.934 72.6408 149.924 71.9059 150.928 71.1965C151.074 71.1346 151.099 71.0946 151.125 71.0546C151.125 71.1091 151.117 71.1601 151.117 71.2147C150.895 71.4766 150.834 71.8841 150.601 72.1133C149.702 72.9865 148.749 73.8014 147.759 74.6928L147.756 74.6892ZM148.01 70.3415C148.152 70.0541 148.229 69.6793 148.454 69.4974C148.909 69.1372 149.447 68.8789 149.95 68.5806C150.543 68.1513 151.026 67.7874 151.536 67.4091C151.172 68.5551 149.622 69.974 148.01 70.3415ZM150.182 33.3553C149.32 33.6791 148.44 33.9665 147.534 34.2321C148.436 33.9701 149.32 33.6791 150.182 33.3553C151.292 32.9369 152.373 32.4712 153.435 31.9509C158.412 28.9566 163.265 26.0097 168.072 23.0918C163.265 26.0097 158.412 28.9566 153.497 31.9254C152.409 32.4566 151.31 32.9332 150.182 33.3516V33.3553ZM138.293 32.7622C138.504 32.6967 138.722 32.624 138.955 32.5439C138.918 32.242 138.813 32.031 138.667 31.8709C138.678 31.8709 138.689 31.8709 138.696 31.8709C138.846 32.0273 138.958 32.2311 139.009 32.5221C138.991 32.5294 138.973 32.533 138.955 32.5403C138.955 32.5439 138.955 32.5512 138.955 32.5549C138.729 32.6276 138.515 32.6931 138.304 32.7586C138.3 32.7586 138.296 32.7586 138.289 32.7586L138.293 32.7622ZM113.222 42.6509C114.309 41.3885 115.728 40.9082 117.366 41.272C119.374 41.7196 120.738 43.4805 120.767 45.5761C120.8 47.628 119.505 49.418 117.584 49.9747C115.652 50.535 113.771 49.6909 112.585 47.7335C111.781 45.8198 111.941 44.1317 113.218 42.6509H113.222ZM118.392 57.8114C119.679 57.4076 120.891 57.1638 121.935 56.6108C122.947 56.0724 123.787 55.2137 124.678 54.5152C124.667 55.3629 122.572 57.3203 120.731 58.1025C119.498 58.6264 118.242 58.8993 117.005 58.2153C116.998 58.1279 116.994 58.0406 116.987 57.9533C117.457 57.906 117.926 57.8587 118.395 57.8114H118.392ZM125.315 57.3275C125.17 58.2189 124.427 58.6264 123.889 59.1867C122.856 59.7251 121.942 60.2636 120.964 60.6019C120.531 60.7511 119.96 60.5001 119.439 60.2672C121.771 59.9653 123.791 59.1867 125.315 57.3312V57.3275ZM139.788 102.74C139.737 102.329 139.613 101.907 139.679 101.514C139.73 101.205 140.021 100.935 140.206 100.648C140.446 100.903 140.879 101.15 140.894 101.419C140.996 103.096 141.098 104.781 141.014 106.455C140.949 107.706 140.665 108.961 140.359 110.184C140.166 110.966 139.595 111.475 138.711 111.486C139.053 110.584 139.384 109.722 139.712 108.859C140.25 106.727 140.035 104.734 139.788 102.74ZM133.57 54.4679C133.534 55.0136 133.585 55.5848 133.439 56.1015C132.777 58.4554 131.162 60.1836 129.492 61.8535C129.375 61.9699 128.877 61.8862 128.699 61.7334C128.313 61.3987 128.52 61.0967 128.873 60.8057C130.572 59.4013 131.962 57.7459 132.883 55.7231C133.072 55.2174 133.214 54.8354 133.356 54.4497C133.428 54.457 133.497 54.4606 133.57 54.4679ZM127.898 64.2547C129.717 63.4216 131.526 62.5666 133.337 61.7189C135.495 60.3509 137.168 58.6664 138.533 56.5963C138.489 59.8525 129.826 66.5032 126.843 65.6409C126.716 64.8114 127.291 64.5349 127.898 64.2547ZM127.16 77.0649C126.923 76.3518 127.127 75.9735 127.8 75.7734C129.997 75.1257 132.188 74.4563 134.378 73.7978C134.396 73.7687 134.414 73.7432 134.432 73.7141C134.447 73.7396 134.458 73.7651 134.469 73.7942C134.451 73.8087 134.436 73.8196 134.418 73.8342C134.414 73.8269 134.403 73.8196 134.378 73.7978C134.378 73.8014 134.371 73.8051 134.371 73.8123C134.389 73.8233 134.407 73.8342 134.418 73.8378C132.304 75.6205 129.786 76.41 127.16 77.0649ZM130.889 110.304C130.132 111.635 129.346 112.963 127.978 113.786C127.796 113.895 127.567 113.927 127.454 113.967C128.248 112.723 129.044 111.461 129.852 110.209C130.008 109.969 130.209 109.762 130.39 109.54C130.649 109.827 130.962 110.176 130.889 110.307V110.304ZM131.387 72.0223C132.617 71.5821 133.716 71.1855 134.88 70.7635C134.094 71.9205 129.612 73.8014 127.582 73.7323C128 73.3539 128.218 73.0192 128.52 72.9101C129.459 72.5681 130.43 72.3098 131.387 72.0223ZM129.452 70.1268C129.415 69.2173 129.677 68.9335 130.329 68.8316C131.453 68.657 132.559 68.3732 133.676 68.1367C133.85 68.0967 133.887 68.0749 133.923 68.0494C133.905 68.0785 133.887 68.1076 133.865 68.1367C133.625 68.2968 133.494 68.5879 133.279 68.6752C132.053 69.17 130.805 69.6175 129.452 70.1268ZM134.462 108.252C135.036 108.456 135.215 108.83 134.924 109.391C134.473 110.253 134 111.101 133.537 111.956C132.923 112.807 132.41 113.593 131.496 113.891C132.486 112.01 133.461 110.155 134.458 108.255L134.462 108.252ZM136.026 110.267C136.11 110.096 136.27 109.962 136.393 109.809C136.594 110.064 136.786 110.315 136.728 110.467C136.182 111.872 135.586 113.258 134.338 114.218C134.261 114.277 134.134 114.277 134.116 114.28C134.749 112.945 135.378 111.603 136.026 110.267ZM130.321 78.3638C130.336 78.4802 130.35 78.6003 130.369 78.7167C129.295 78.9168 128.222 79.1132 127.145 79.3133C126.414 79.3279 125.85 79.3024 125.293 79.3534C124.449 79.4298 124.22 79.0769 124.446 78.3638H130.318H130.321ZM127.167 81.8929C127.189 82.002 127.211 82.1075 127.236 82.2167C126.479 82.4168 125.719 82.6169 124.962 82.817C124.329 82.8497 123.86 82.8752 123.387 82.8824C122.492 82.897 122.466 82.8643 122.576 81.8929H127.167ZM123.809 93.255C124.737 93.7753 125.741 94.2483 126.276 95.3652C125.93 95.347 125.603 95.3143 125.446 95.1324C124.9 94.5066 124.416 93.8262 123.809 93.255ZM124.267 96.9951C123.853 97.0461 123.412 97.1043 123.216 96.9151C122.223 95.9582 121.295 94.9323 120.323 93.9136C122.012 94.4556 123.35 95.4452 124.267 96.9951ZM124.114 85.7385C123.118 86.3133 122.124 86.1969 121.131 86.0805C120.327 85.8985 119.669 85.7421 119.025 85.5493C118.668 85.4438 118.119 85.4656 118.33 84.8071C118.541 84.1558 118.966 84.2795 119.45 84.4614C120.189 84.7416 120.935 85.0181 121.699 85.2255C122.455 85.4328 123.234 85.5529 124.118 85.7348L124.114 85.7385ZM120.513 98.8943C118.683 97.3226 116.492 96.413 114.353 95.4271C113.902 95.2197 113.68 94.9796 113.949 94.4811C114.204 94.0081 114.535 93.979 114.972 94.2264C115.685 94.6339 116.416 95.0196 117.136 95.4161C118.599 96.3621 119.938 97.2534 120.513 98.8943ZM116.558 100.288C116.623 100.371 116.642 100.491 116.667 100.553C115.317 100.048 113.964 99.5419 112.614 99.0362C112.054 98.796 111.293 98.887 111.552 98.0575C111.61 97.8756 111.959 97.61 112.086 97.6536C113.756 98.2212 115.437 98.7924 116.558 100.288ZM209.566 17.1833C209.242 23.4738 208.907 29.7643 208.572 36.0548C208.121 44.561 207.666 53.0672 207.208 61.5697C206.84 68.3914 206.473 75.2131 206.087 82.0347C205.64 89.9188 205.185 97.8028 204.716 105.683C204.356 111.734 204.006 117.788 203.584 123.834C203.049 131.496 202.726 139.188 201.114 146.737C200.666 148.844 200.153 150.935 199.64 153.173C199.284 153.006 199.007 152.878 198.735 152.744C191.094 148.985 183.054 146.857 174.511 146.864C168.366 146.872 162.487 148.109 157.004 150.965C156.491 151.23 156.222 151.092 155.854 150.794C152.827 148.378 149.739 146.035 146.217 144.372C144.354 143.492 142.433 142.739 140.505 141.916C140.505 140.916 140.639 139.81 140.479 138.751C139.955 135.251 139.355 131.762 138.726 128.28C138.311 125.981 137.798 123.7 138.253 121.342C138.616 119.465 139.624 117.97 141.247 117.045C141.873 116.689 142.851 116.765 143.63 116.893C145.347 117.173 146.697 118.202 147.938 119.374C149.498 117.213 149.156 115.252 146.901 113.869C146.177 113.425 145.871 112.978 146.162 112.046C147.792 113.553 149.313 115.303 151.972 114.593C149.873 112.05 149.833 109.332 151.237 106.487C151.998 107.146 152.234 107.757 152.747 110.369C153.017 110.402 153.3 110.438 153.671 110.486C154.166 108.867 154.727 107.28 155.112 105.658C155.33 104.734 155.742 104.359 156.658 104.457C156.946 104.486 157.248 104.41 157.659 104.373C157.823 100.79 158.045 97.2062 156.629 93.6662C158.43 93.8772 160.155 94.0773 162.054 94.2992C161.861 93.9136 161.73 93.6443 161.592 93.3787C160.922 92.0981 160.188 90.8465 159.598 89.5331C158.798 87.7504 159.056 86.0077 160.122 84.396C160.253 84.1958 160.639 84.0176 160.868 84.054C163 84.3996 164.706 83.501 166.387 82.3003C165.252 81.2343 164.146 80.2484 163.116 79.1933C162.832 78.9022 162.581 78.3783 162.621 77.9927C162.898 75.1985 163.262 72.4153 163.578 69.6284C164.091 65.157 164.164 60.7184 162.6 56.4034C161.133 52.3614 158.427 49.3234 154.952 46.8895C153.733 46.0345 153.42 44.6301 153.067 43.3204C152.886 42.6437 153.595 42.4981 154.133 42.4217C155.48 42.2325 156.833 42.0943 158.172 41.8796C159.533 41.6613 160.682 41.1775 161.272 39.7222C161.483 39.2019 162.163 38.7726 162.727 38.5215C163.826 38.0304 165.001 37.7139 166.129 37.2845C166.674 37.0772 167.231 36.8443 167.708 36.5132C168.341 36.0767 168.57 35.4472 168.348 34.6468C168.006 33.4171 168.206 33.0205 169.432 32.5585C170.258 32.2456 171.128 32.0528 171.968 31.7836C173.332 31.347 173.558 30.8776 173.063 29.5642C172.528 28.138 172.765 27.5341 174.155 26.8829C174.93 26.519 175.734 26.2243 176.494 25.8314C176.96 25.5913 177.404 25.2711 177.793 24.9146C179.055 23.7649 179.106 22.9936 178.073 21.6402C177.931 21.4546 177.797 21.2618 177.604 20.9998C180.234 19.3554 182.726 17.5945 183.876 14.3091C182.195 14.6075 180.671 14.8512 179.154 15.1532C171.284 16.7177 163.953 19.6428 157.171 23.9359C156.349 24.4562 155.487 24.9146 154.636 25.3839C153.89 25.7987 153.184 25.624 152.198 25.1183L151.008 25.8423C152.402 24.2815 153.759 22.6916 155.138 21.1163C155.778 20.385 155.756 20.0466 155.025 19.4027C152.718 17.3689 150.39 15.357 148.112 13.2941C146.755 12.0644 145.129 11.4713 143.393 11.1002C140.785 10.5399 138.133 10.3944 135.477 10.3289C134.876 10.3144 134.629 10.1761 134.673 9.8414C134.738 9.33569 135.138 9.40846 135.48 9.41937C137.918 9.47758 140.352 9.62311 142.76 10.0488C142.92 10.0779 143.11 9.95055 143.288 9.89234C143.201 9.7177 143.161 9.47394 143.019 9.37207C141.04 7.96408 138.762 7.2619 136.448 6.67615C131.587 5.44643 126.643 4.99892 121.64 5.15173C118.017 5.26088 114.444 5.7484 110.937 6.6907C110.788 6.73072 110.537 6.88353 110.548 6.94538C110.577 7.12001 110.682 7.33103 110.828 7.42926C113.942 9.61947 117.34 10.5436 121.186 10.1288C124.871 9.73226 128.593 9.63766 132.297 9.40845C132.355 9.40845 132.413 9.40845 132.471 9.40845C132.781 9.40845 132.984 9.55035 132.984 9.87051C132.984 10.1725 132.777 10.3035 132.497 10.3144C131.613 10.3435 130.725 10.3398 129.845 10.3981C126.909 10.5909 123.962 10.7255 121.037 11.0384C117.333 11.4313 113.975 10.6455 110.915 8.53528C110.7 8.38611 110.482 8.24422 110.256 8.10597C109.703 7.76762 109.19 8.01138 109.14 8.65898C108.929 11.3185 108.659 13.9781 108.547 16.6449C108.394 20.3086 108.314 23.9723 108.223 27.636C103.908 25.835 100 23.3174 96.3621 20.3959C92.5165 17.307 88.8455 13.9963 85.1054 10.7728C84.727 10.449 84.4723 9.96874 84.0758 9.68132C83.6756 9.3939 83.1262 9.04099 82.726 9.12103C82.4349 9.17925 82.0857 9.90689 82.0966 10.3289C82.1584 12.4318 82.3294 14.5311 83.701 16.292C83.9193 16.5721 84.1122 16.8741 84.3487 17.136C85.2291 18.1038 85.8112 19.0971 85.5565 20.5414C85.3419 21.7457 85.8694 22.8699 86.7935 23.7212C87.332 24.2197 87.9287 24.6526 88.5181 25.1292C88.187 27.887 88.8273 29.0331 91.5014 30.3028C92.1454 30.6084 92.6293 30.8012 92.3819 31.7508C92.1708 32.5512 92.8548 33.1588 93.5679 33.4208C94.9723 33.941 96.4167 34.3412 97.8756 34.8033C97.8028 36.1713 98.0939 36.6588 99.6001 37.0226C101.605 37.5065 103.628 38.0195 105.723 37.23C105.683 37.3464 105.683 37.4192 105.65 37.4374C103.351 38.7908 103.027 41.1156 102.638 43.4404C102.191 46.0891 101.674 48.7268 101.157 51.3645C101.044 51.9357 100.841 52.4996 100.608 53.0381C98.8397 57.142 96.3839 60.7875 92.9385 63.6399C91.334 64.9678 90.6464 66.5577 90.4536 68.5115C90.2753 70.3342 90.4245 72.1169 91.0794 73.8342C91.465 74.8529 92.1381 75.4204 93.3314 75.4823C96.0783 75.6205 98.4904 74.6782 100.841 73.434C101.026 73.3721 101.088 73.3321 101.154 73.2921C101.172 73.3503 101.19 73.4085 101.208 73.4667C100.652 74.2817 99.9894 74.6782 99.1344 74.8856C97.4717 75.2858 95.8273 75.7624 94.1791 76.2172C92.6693 76.632 91.3522 78.3092 91.2868 79.87C91.2649 80.4376 91.3813 80.8996 91.9853 81.1507C93.0949 81.6164 94.1537 82.2276 95.2961 82.5914C96.7259 83.0462 98.203 82.7988 99.058 81.5327C100.437 79.4807 102.103 79.1642 104.461 79.5207C106.451 79.8191 108.568 79.3425 110.62 79.1023C111.654 78.9823 112.763 76.8575 112.541 75.6497C112.476 75.3004 112.388 74.9584 112.323 74.6091C112.21 73.9833 112.33 73.4376 112.865 73.0301C116.11 70.5598 119.334 68.0676 122.605 65.6336C123.416 65.0297 125.191 65.368 125.741 66.2266C125.974 66.5905 126.035 67.3108 125.824 67.6674C121.932 74.3508 117.384 80.4885 111.202 85.2982C107.837 87.9178 104.439 90.4572 100.521 92.2109C98.7378 93.0076 96.9005 93.6334 94.9177 93.7462C94.1064 93.7935 93.4406 93.5861 92.7675 93.1386C89.9115 91.2358 87.8414 88.6672 86.266 85.6584C85.5966 84.3778 84.9089 83.108 84.2286 81.831C82.1475 77.9163 78.9604 75.2895 74.9584 73.4267C72.1024 72.0951 69.5011 72.2188 66.7324 73.5504C62.945 75.3695 58.8774 76.0571 54.6971 76.1335C51.8011 76.1845 48.9014 76.1772 46.0054 76.3154C43.9061 76.4173 42.0252 77.1632 40.2679 78.4038C39.1109 79.2188 37.6848 79.659 36.3495 80.2011C34.4904 80.9506 32.5512 81.5145 30.7503 82.3804C27.7015 83.8429 27.414 85.3965 29.4806 87.9687C31.7981 90.8538 34.8651 92.2109 38.4233 92.622C39.8895 92.793 41.3739 92.8148 42.8474 92.8403C43.1166 92.8439 43.4986 92.6147 43.6478 92.3782C44.7029 90.6719 45.6889 88.9219 46.7439 87.2156C47.0459 86.7281 47.4934 86.3351 48.0028 85.753C48.6067 86.4115 49.1161 86.9645 49.6254 87.5212C51.3427 89.3949 52.8744 89.635 55.0391 88.3107C55.7158 87.8959 56.3852 87.4339 56.9564 86.8845C60.722 83.2645 65.0697 82.7442 69.843 84.4032C70.6216 84.6761 71.3857 84.9963 72.1751 85.2364C74.4345 85.9204 75.7079 87.5539 76.3264 89.7041C76.8394 91.4869 77.1886 93.3169 77.5706 95.136C78.2292 98.2685 79.2879 101.212 81.398 103.686C81.4453 103.744 81.4599 103.828 81.5072 103.937C79.9682 103.937 78.4729 103.995 76.9812 103.926C71.8914 103.693 66.8633 103.027 61.9263 101.732C60.7948 101.434 59.6742 101.608 58.6482 102.129C57.5749 102.674 56.4835 103.238 55.523 103.955C51.3063 107.102 47.0714 110.227 42.9747 113.527C41.1702 114.979 39.2019 115.583 37.008 115.91C35.5273 116.132 34.0538 116.489 32.6313 116.954C31.9436 117.18 31.2778 117.704 30.783 118.257C29.0913 120.152 27.5086 122.143 25.8314 124.049C23.6812 126.49 22.2041 129.266 21.4001 132.421C21.2691 132.926 21.36 133.137 21.833 133.366C24.0887 134.458 26.4717 134.684 28.9239 134.473C31.1032 134.287 33.2789 134.087 35.4545 133.854C35.7274 133.825 36.0476 133.621 36.2258 133.399C38.0595 131.118 38.4233 128.502 37.9322 125.701C37.8521 125.239 37.783 124.777 37.6738 124.118C39.0709 124.118 40.4134 124.096 41.7523 124.129C42.218 124.14 42.6837 124.282 43.1494 124.362C44.8994 124.664 45.6743 124.282 46.5511 122.696C46.9331 122.001 47.2351 121.233 47.7335 120.633C50.2112 117.653 53.5183 116.252 57.2948 115.874C58.9975 115.703 60.7111 115.667 62.4174 115.525C62.9086 115.485 63.4434 115.379 63.8618 115.135C64.9751 114.488 66.0411 114.691 67.158 115.084C72.3862 116.925 77.6216 118.741 82.857 120.571C87.8559 122.317 92.9167 123.823 98.2176 124.307C100.186 124.486 102.172 124.449 104.152 124.478C104.828 124.489 105.505 124.406 106.425 124.351C103.941 125.199 97.9374 125.144 93.7717 124.344C89.6423 123.551 85.6657 122.263 81.7219 120.684C80.9069 124.275 81.5836 127.593 83.3663 130.681C84.4833 132.624 85.7894 134.458 86.99 136.353C87.5721 137.27 88.1106 138.216 88.7145 139.228C86.3606 140.163 84.1304 141.08 81.8747 141.935C74.9293 144.569 68.4023 147.938 62.6321 152.678C62.4356 152.842 62.0099 152.929 61.788 152.831C55.3229 149.997 48.5048 149.113 41.5267 149.266C32.1619 149.473 23.2956 151.638 15.1096 156.313C14.9604 156.4 14.8003 156.469 14.5056 156.615C13.9271 154.49 13.3377 152.431 12.8102 150.357C11.0966 143.597 10.3835 136.695 9.94327 129.757C9.38299 120.993 8.78268 112.228 8.24786 103.464C7.77489 95.729 7.36377 87.9942 6.93446 80.2556C6.47968 72.1351 6.0249 64.0146 5.58468 55.8941C5.19539 48.6868 4.83157 41.4831 4.45319 34.2757C4.00205 25.6204 3.55091 16.9687 3.10341 8.31335C3.01245 6.57428 2.93605 4.83884 2.85237 3.0452H210.282C210.046 7.78217 209.82 12.4755 209.576 17.1652L209.566 17.1833ZM107.171 71.6185C107.142 71.6185 107.109 71.6112 107.08 71.6112C107.146 71.5821 107.157 71.6003 107.171 71.6185ZM107.058 71.9641C106.989 72.2188 106.953 72.5171 106.829 72.7682C105.734 74.9729 104.195 76.7666 101.907 77.778C100.08 78.5857 98.3849 79.5498 96.9224 80.936C96.1256 81.6891 95.136 81.3726 94.2592 81.0197C93.5097 80.7177 93.1277 80.0883 93.2041 79.2479C93.2732 78.4838 93.5643 77.9417 94.4011 77.7053C96.6968 77.0467 98.9852 76.3446 101.255 75.6024C102.063 75.3368 102.816 74.9075 103.595 74.5546C104.81 73.6705 105.905 72.8373 107.062 71.9605L107.058 71.9641ZM100.568 67.1653C100.331 67.4746 99.702 67.6601 99.2836 67.6055C98.9452 67.5619 98.5305 67.1362 98.3886 66.7833C98.1521 66.1866 98.3959 65.6336 98.9852 65.288C99.7893 64.9896 100.411 65.1606 100.67 65.801C100.83 66.1939 100.804 66.8524 100.568 67.1617V67.1653ZM45.3068 85.109C44.9612 85.4547 44.35 85.542 43.7788 85.2546C43.0548 84.8907 42.3708 84.4287 41.7159 83.9412C41.272 83.6101 40.9191 83.1553 40.5117 82.7733C39.7549 82.0675 39.744 81.58 40.5808 80.6959C41.0538 81.2525 41.5194 81.8019 41.9815 82.3513C43.1385 83.3263 44.2117 84.2068 45.3068 85.1054V85.109ZM36.1967 124.205C34.876 124.9 33.2206 124.795 31.5725 124.715C30.6484 124.602 29.888 124.522 29.1313 124.413C28.7129 124.351 28.1453 124.376 28.2581 123.711C28.36 123.121 28.8002 123.179 29.2877 123.252C31.6344 123.598 33.992 123.903 36.2004 124.205H36.1967Z" fill="#223971"/>
<mask id="mask0_34_7545" style="mask-type:luminance" maskUnits="userSpaceOnUse" x="22" y="152" width="170" height="74">
<path d="M191.509 168.275C190.254 167.449 189.082 166.46 187.747 165.798C182.704 163.298 177.378 163.265 171.983 164.281C166.569 165.299 161.61 167.482 156.964 170.396C156.433 170.727 156.116 170.673 155.662 170.298C151.689 167.009 147.476 164.07 142.99 161.523C133.96 156.396 124.322 153.246 113.917 152.686C108.346 152.384 102.813 152.831 97.3553 154.05C86.3933 156.502 76.5956 161.33 67.9693 168.515C66.2958 169.909 64.7786 171.488 63.156 173.016C63.1159 172.99 63.0068 172.94 62.9268 172.859C60.1617 170.207 56.8218 168.632 53.1508 167.711C46.0345 165.925 38.9145 166.282 31.809 167.799C29.0294 168.392 26.3007 169.178 23.8486 170.691C22.2987 171.648 22.2478 171.906 22.9536 173.551C24.94 178.189 27.4431 182.537 30.3537 186.805C34.5122 192.812 39.2892 198.265 44.7938 203.09C55.2537 212.258 67.2599 218.516 80.634 222.19C87.3465 224.035 94.19 225.119 101.132 225.628C107.637 226.105 114.095 226.163 120.545 224.857C131.307 222.674 141.585 219.192 151.219 213.891C164.801 206.418 176.112 196.446 184.622 183.414C187.507 178.994 189.923 174.329 191.8 169.389C191.993 168.883 191.953 168.574 191.505 168.279L191.509 168.275Z" fill="white"/>
</mask>
<g mask="url(#mask0_34_7545)">
<path fill-rule="evenodd" clip-rule="evenodd" d="M110.235 160.609C114.841 159.605 114.171 166.838 109.918 165.667C108.241 165.205 107.411 161.224 110.235 160.609Z" fill="#223971"/>
<path fill-rule="evenodd" clip-rule="evenodd" d="M98.7014 174.042C94.2701 173.176 95.0268 168.173 91.4322 166.616C90.519 166.22 89.2675 166.034 88.4307 165.983C79.4552 165.437 71.5784 174.089 66.1502 177.516C59.7578 182.395 54.1695 188.078 45.2922 190.472C51.972 188.38 57.5385 184 62.672 179.885C70.4979 173.612 79.8736 162.581 92.5346 162.661C98.8324 162.701 100.037 167.62 98.6978 174.038L98.7014 174.042ZM84.4796 165.35C90.6646 162.985 96.875 165.154 97.4353 171.513C98.072 164.491 89.6459 162.287 84.4796 165.35Z" fill="#223971"/>
<path fill-rule="evenodd" clip-rule="evenodd" d="M176.283 190.316C169.265 188.751 163.397 183.774 157.481 179.099C151.689 174.522 146.129 169.461 139.468 166.933C136.441 165.783 131.5 165.554 129.197 167.406C126.81 169.327 126.938 173.369 123.194 174.198C121.91 168.166 122.681 162.887 128.881 162.665C134.633 162.458 139.122 164.954 143.102 167.406C154.254 174.282 163.069 185.99 176.283 190.316ZM125.246 166.929C124.344 168.17 123.358 171.16 124.457 172.303C124.387 167.908 126.232 165.306 129.987 164.877C134.12 164.404 136.885 166.231 139.624 165.983C135.411 164.335 127.891 163.291 125.246 166.933V166.929Z" fill="#223971"/>
<path fill-rule="evenodd" clip-rule="evenodd" d="M114.186 167.246C114.237 167.613 114.16 167.853 114.029 168.035C112.745 168.937 109.492 168.446 107.71 168.352V166.929C109.354 166.5 113 166.227 114.189 167.246H114.186Z" fill="#223971"/>
<path fill-rule="evenodd" clip-rule="evenodd" d="M94.1174 170.88C92.8185 172.274 91.0649 173.896 89.3768 175.461C87.7032 177.011 86.1169 179.008 84.1632 179.412C81.6637 179.928 78.3457 178.902 78.7895 176.25C78.9605 175.235 80.6305 173.933 81.6346 172.932C82.737 171.83 84.2141 171.022 84.1632 169.77C83.1408 169.549 82.5478 170.844 81.9511 171.51C80.2739 173.376 77.7745 176.279 75.6315 177.673C74.8166 178.2 73.1685 178.419 71.524 178.306C70.8254 177.691 70.0614 177.138 69.7849 176.094C74.1471 173.012 80.9506 166.129 88.5873 166.773C91.3814 167.005 93.0768 168.497 94.1174 170.88ZM80.8451 178.149C84.789 176.512 86.4807 172.619 89.3768 169.934C89.4131 169.734 89.6242 169.61 89.2203 169.618C86.3934 172.426 83.9813 175.65 80.8451 178.149ZM71.997 177.36C73.998 175.621 76.9049 173.947 77.8436 171.673C76.1227 173.798 73.3904 174.908 71.997 177.36Z" fill="#223971"/>
<path fill-rule="evenodd" clip-rule="evenodd" d="M152.107 176.094C151.772 177.182 150.826 177.655 150.051 178.306C143.059 178.24 142.007 172.234 137.569 169.614C137.467 171.099 139.006 171.997 139.937 172.932C140.952 173.947 141.931 175.061 142.939 175.934C142.935 178.499 141.025 180.158 137.409 179.408C134.942 178.899 131.897 175.002 129.983 173.089C129.306 172.412 127.949 171.36 127.927 170.72C127.898 169.716 129.681 167.853 130.612 167.402C131.416 167.013 132.348 166.835 133.141 166.769C141.04 166.14 147.326 173.063 152.1 176.09L152.107 176.094ZM150.211 177.356C149.731 175.966 148.098 175.432 147.05 174.671C145.867 173.813 144.896 172.725 143.575 172.143C143.575 171.983 143.299 171.943 143.259 172.143C145.38 174.078 147.647 175.868 150.211 177.356Z" fill="#223971"/>
<path fill-rule="evenodd" clip-rule="evenodd" d="M108.812 169.458C110.187 169.458 111.803 169.05 113.08 169.458C112.796 185.71 112.76 202.213 112.447 218.439C111.104 218.41 110.118 218.028 109.129 217.65C108.958 202.282 108.605 185.873 108.656 169.774C108.59 169.469 108.765 169.203 108.812 169.458Z" fill="#223971"/>
<path fill-rule="evenodd" clip-rule="evenodd" d="M123.034 183.363C124.416 185.56 126.77 188.158 129.67 189.366C129.208 190.181 128.44 190.665 127.614 190.789C123.088 191.462 122.059 185.451 118.923 184.309C119.181 185.895 120.956 187.329 121.924 188.733C120.84 191.149 114.67 190.796 113.865 188.416V182.413C116.47 182.65 118.22 182.028 119.396 180.834C122.168 181.344 124.787 180.612 126.348 179.412C128.167 180.947 133.614 181.824 133.774 178.149C135.651 180.707 143.517 181.726 143.572 176.727C145.351 179.59 151.696 180.22 153.209 176.727C157.215 180.201 161.268 183.625 165.848 186.525C165.808 187.063 165.448 187.285 165.532 187.947C157.444 188.187 155.236 181.708 150.048 179.572C150.2 180.551 151.088 181.358 151.787 181.94C153.886 183.687 156.415 185.269 158.423 187.314C158.125 188.016 157.812 188.704 157 188.893C154.581 187.019 151.477 185.932 149.575 183.519C149.116 182.941 149.04 181.868 148.152 181.624C149.298 185.007 153.067 187.139 156.367 188.893C152.602 189.766 150.812 187.689 148.309 185.731C145.66 183.661 144.769 182.417 142.462 180.834C141.763 181.577 142.888 182.279 143.412 182.73C143.979 183.221 144.572 183.814 145.151 184.309C146.264 185.262 150.528 187.365 147.996 188.889C146.77 189.628 143.895 189.308 142.939 188.889C141.287 188.165 139.475 186.201 137.725 184.782C136.87 184.091 135.975 183.414 135.196 182.726C134.447 182.064 133.61 180.645 132.668 181.304C134.356 183.778 137.94 185.721 140.254 188.096C139.755 190.436 135.702 190.174 134.09 189.359C133.33 188.973 132.613 187.991 131.722 187.303C129.419 185.535 126.588 183.305 124.453 181.617C124.544 182.941 125.963 183.916 126.981 184.778C128.062 185.691 129.306 186.463 130.143 187.463C130.267 188.165 129.932 188.413 129.986 189.042C126.748 188.067 125.348 185.255 123.034 183.356V183.363ZM154.792 180.678C156.131 181.886 157.772 182.981 159.372 183.996C160.962 185.004 162.549 186.346 164.43 186.525C161.515 184.065 157.673 182.537 154.792 180.045V180.678ZM138.358 183.046C139.271 183.534 140.199 184.418 141.203 185.102C142.167 185.757 143.317 186.75 144.205 186.525C142.56 185.429 140.166 183.716 138.202 182.417C137.885 182.741 138.271 182.726 138.358 183.05V183.046ZM137.725 187.471C136.615 186.765 135.316 186.081 134.09 185.415C132.832 184.735 131.755 183.8 130.616 183.519C132.359 185.357 135.215 186.925 137.725 187.471ZM118.606 189.366C117.082 187.944 115.688 186.386 114.815 184.309C114.63 184.287 114.459 184.029 114.342 184.309C115.288 186.47 116.223 188.642 118.61 189.366H118.606Z" fill="#223971"/>
<path fill-rule="evenodd" clip-rule="evenodd" d="M58.4081 188.893C56.0796 192.116 49.1379 193.601 44.1863 191.738C48.5449 191.145 51.7756 189.424 54.6134 187.314C55.1264 188.558 56.4398 189.599 58.4045 188.893H58.4081ZM50.193 190.789C49.3926 190.96 48.1665 190.487 47.8245 191.578C50.826 191.367 53.9258 190.41 54.9336 188.733C53.5292 189.315 51.9575 190.41 50.193 190.789Z" fill="#223971"/>
<path fill-rule="evenodd" clip-rule="evenodd" d="M166.802 187.471C170.138 189.086 172.718 191.458 177.545 191.578C173.536 193.281 166.136 192.67 164.43 189.21C165.75 189.162 166.489 188.529 166.798 187.471H166.802ZM166.485 188.733C166.362 188.769 166.303 188.864 166.329 189.049C167.431 189.588 168.948 190.381 170.436 190.945C171.877 191.491 174.02 192.513 174.704 191.578C171.786 190.909 169.025 189.257 166.489 188.733H166.485Z" fill="#223971"/>
<path fill-rule="evenodd" clip-rule="evenodd" d="M62.3593 187.631C63.0687 189.188 64.4149 190.105 66.7834 189.999C64.6477 193.226 57.5386 195.402 53.1946 193.001C57.2585 192.218 58.7138 188.828 62.3593 187.627V187.631ZM55.8796 193.004C58.9066 193.339 61.1841 191.571 62.9887 190.159C60.5765 191.065 58.7356 192.542 55.8796 193.004Z" fill="#223971"/>
<path fill-rule="evenodd" clip-rule="evenodd" d="M74.209 189.843C72.4845 193.19 68.4424 195.227 63.4653 193.95C64.7132 192.302 67.129 191.822 68.0459 189.843C69.9596 189.912 70.7054 188.813 71.6804 187.947C72.4918 188.609 72.7719 189.806 74.209 189.843ZM67.5729 193.317C68.919 192.557 70.4762 191.167 70.7345 189.843C69.6285 190.952 68.3733 191.905 67.5729 193.317Z" fill="#223971"/>
<path fill-rule="evenodd" clip-rule="evenodd" d="M149.735 187.947C151.055 189.468 153.744 189.624 154.948 191.265C153.417 191.425 151.736 190.37 150.051 190.159C152.416 191.742 156.396 191.716 158.426 193.634C153.904 195.435 148.814 193.273 147.523 189.843C148.727 189.679 149.265 188.846 149.735 187.947Z" fill="#223971"/>
<path fill-rule="evenodd" clip-rule="evenodd" d="M161.745 188.577C163.127 190.774 165.208 192.277 168.224 192.844C164.033 195.413 156.593 192.739 155.269 189.999C157.408 190.083 158.761 189.384 159.376 187.943C160.195 188.125 160.609 188.711 161.745 188.577ZM164.43 192.528C162.494 192.04 161.144 190.97 159.533 190.159H159.216C160.133 191.567 162.359 193.324 164.43 192.528Z" fill="#223971"/>
<path fill-rule="evenodd" clip-rule="evenodd" d="M90.6427 188.103C91.032 192.156 97.2097 192.688 99.0179 189.526C100.437 191.603 105.814 192.4 107.55 190.159C107.917 191.687 107.604 193.899 107.706 195.689C105.108 196.551 101.827 195.94 99.4908 195.216C100.073 194.379 102.314 193.859 101.386 192.531C99.1816 194.012 96.784 196.126 92.2217 195.849C91.243 195.791 90.3443 195.522 89.3766 195.216C89.9405 194.03 92.1416 193.681 91.9051 192.215C90.3079 192.506 89.4166 194.449 87.6375 195.216C84.7524 196.46 80.914 195.729 77.9998 194.427C79.5606 193.252 81.9109 192.862 82.5804 190.792C81.2997 190.872 80.4047 192.131 79.1058 192.848C77.1667 193.917 74.8055 194.714 71.8367 193.954C72.9682 192.611 74.3179 191.483 75.3112 190.003C77.596 190.181 79.2987 189.777 80.3683 188.74C82.4348 192.244 88.7071 190.465 90.639 188.107L90.6427 188.103ZM75.3148 193.634C76.479 193.27 77.2722 192.535 77.8434 191.578C76.7046 191.967 76.0243 192.815 75.3148 193.634ZM82.7404 194.583C84.5304 194.423 85.9275 193.033 86.2149 191.898C85.2726 193.011 83.9047 193.695 82.7404 194.583ZM103.755 194.427C104.21 196.049 105.57 194.103 105.81 193.164C105.487 193.117 105.501 192.739 105.177 192.691C104.85 193.419 104.515 194.136 103.755 194.43V194.427ZM93.0111 194.583C94.7539 195.329 96.7549 194.299 97.7518 193.321C96.4165 193.372 94.954 194.62 93.0111 194.583Z" fill="#223971"/>
<path fill-rule="evenodd" clip-rule="evenodd" d="M131.093 188.26C132.537 190.076 139.166 192.477 141.047 188.733C142.506 189.588 143.979 190.356 146.26 189.995C147.323 191.302 149.033 192.804 149.735 193.947C145.213 195.078 141.873 192.63 139.464 190.629C139.377 190.858 139.217 191.014 138.991 191.102C140.097 192.524 141.8 193.35 143.415 194.263C140.723 196.541 135.007 196.097 132.511 194.107C131.66 193.426 131.093 192.171 129.826 192.211C129.863 193.354 131.467 194.241 132.355 195.056C131.198 195.751 129.906 195.984 127.931 195.846C124.635 195.617 122.408 193.921 120.189 192.684C119.807 194.034 121.666 194.318 122.401 195.053C120.222 196.028 118.097 193.252 116.238 192.368C116.314 194.19 119.319 194.445 120.505 195.686C118.639 196.271 115.706 196.344 113.869 195.686C113.629 194.085 114.011 192.138 113.869 190.156C115.783 191.52 118.261 191.869 120.662 190.945C121.066 190.789 122.281 189.537 122.557 189.523C123.19 189.49 125.308 191.687 126.825 191.735C128.724 191.793 130.711 190.243 131.093 188.26ZM138.991 194.896C138.518 194.791 139.144 194.558 138.991 194.263C136.903 193.612 136.051 191.724 134.094 190.945C135.258 192.626 137.507 194.063 138.991 194.896ZM128.247 195.053C127.272 193.972 126.228 192.964 125.246 191.891C125.264 193.204 127.163 194.809 128.247 195.053Z" fill="#223971"/>
<path fill-rule="evenodd" clip-rule="evenodd" d="M104.071 201.219C102.765 203.111 99.2799 201.354 97.2788 201.063C97.6026 202.216 99.1271 202.162 100.124 202.642C96.9405 202.944 94.6629 200.139 90.9592 201.379C90.61 200.917 91.1448 200.277 90.9592 199.484C91.6978 199.327 92.3599 199.091 93.3277 199.167C93.6988 199.64 93.1676 201.012 94.1172 200.906C94.5756 200.488 93.7643 200.004 93.9608 199.327C97.5663 197.115 101.033 200.401 104.071 201.223V201.219ZM100.597 201.219C101.044 201.35 101.008 200.997 101.386 201.063C101.656 199.433 99.4982 200.401 100.597 201.219Z" fill="#223971"/>
<path fill-rule="evenodd" clip-rule="evenodd" d="M127.931 199.164C128.648 199.287 129.393 199.386 129.986 199.637C129.648 200.444 130.183 200.503 130.303 201.216C129.019 201.412 128.215 200.579 127.141 201.059C127.582 200.604 128.076 200.204 127.931 199.164Z" fill="#223971"/>
<path fill-rule="evenodd" clip-rule="evenodd" d="M90.4865 199.797C89.9989 200.219 89.7843 201.59 90.803 201.692C90.2354 202.598 88.6528 203.752 87.6414 202.798C87.7651 200.972 88.9911 200.252 90.4865 199.797Z" fill="#223971"/>
<path fill-rule="evenodd" clip-rule="evenodd" d="M130.776 199.953C132.104 200.415 133.079 201.23 133.305 202.798C133.035 202.791 132.897 202.915 132.832 203.115C131.656 202.973 130.798 202.515 130.303 201.692C131.311 201.911 130.903 200.408 130.776 199.953Z" fill="#223971"/>
<path fill-rule="evenodd" clip-rule="evenodd" d="M86.8519 202.638C87.2557 203.235 87.5395 203.952 88.7474 203.744C88.7547 204.385 88.4309 204.69 88.1143 205.007C86.7245 205.109 85.8004 203.577 86.8519 202.638Z" fill="#223971"/>
<path fill-rule="evenodd" clip-rule="evenodd" d="M133.938 202.638C135.004 204.05 135.815 205.709 135.677 208.325C134.833 208.954 134.214 209.813 132.832 209.904C132.872 209.209 133.083 208.681 132.988 207.848C134.029 207.601 135.724 207.244 135.2 205.953C134.501 206.255 133.894 206.648 133.144 206.902C132.835 206.629 132.802 206.084 132.828 205.48C133.639 205.607 133.865 205.149 134.567 205.163C134.567 204.745 134.625 204.261 134.411 204.057C133.785 204.326 133.195 204.636 132.515 204.847C132.49 204.399 132.224 204.188 132.198 203.741C133.137 204.305 133.868 203.453 133.938 202.635V202.638Z" fill="#223971"/>
<path fill-rule="evenodd" clip-rule="evenodd" d="M85.7456 204.694C86.4514 205.043 86.939 205.607 88.1141 205.483C88.1287 206.287 87.783 206.731 87.7976 207.539C86.2441 207.379 84.9161 206.324 85.742 204.694H85.7456Z" fill="#223971"/>
<path fill-rule="evenodd" clip-rule="evenodd" d="M85.269 207.539C86.1531 208.128 88.1141 207.645 88.1141 209.118C87.8413 209.886 86.6625 210.275 85.7456 209.907C85.5128 209.191 85.44 208.318 85.2727 207.539H85.269Z" fill="#223971"/>
<path fill-rule="evenodd" clip-rule="evenodd" d="M88.2743 210.38C88.7037 211.366 89.0711 212.116 88.4308 213.065C87.0519 212.814 86.1896 212.043 85.5857 211.01C86.2479 210.566 87.4084 210.621 88.2707 210.377L88.2743 210.38Z" fill="#223971"/>
<path fill-rule="evenodd" clip-rule="evenodd" d="M89.2203 212.436C90.1371 212.985 91.7488 213.829 90.7993 215.281C88.7364 215.448 87.7868 214.503 86.8481 213.542C87.1174 213.182 87.7395 213.8 88.2707 213.698C88.8455 213.538 89.0856 213.04 89.2203 212.436Z" fill="#223971"/>
<path fill-rule="evenodd" clip-rule="evenodd" d="M91.5923 214.332C93.044 214.655 94.5102 215.685 93.9608 217.493C92.1344 217.268 90.3663 216.98 89.2202 216.071C89.926 215.827 90.8574 215.812 91.5887 215.598V214.335L91.5923 214.332Z" fill="#223971"/>
<path fill-rule="evenodd" clip-rule="evenodd" d="M129.67 215.598C130.314 215.878 131.26 215.867 131.726 215.914C130.805 217.049 129.037 217.337 127.145 217.493C126.49 215.627 128.04 214.881 129.201 214.332C129.746 214.364 129.488 215.201 129.674 215.594L129.67 215.598Z" fill="#223971"/>
<path fill-rule="evenodd" clip-rule="evenodd" d="M94.4338 215.754C94.9505 215.507 95.9837 216.096 96.6459 216.227C96.7259 216.984 97.1734 218.053 96.8023 218.756C95.2415 219.29 93.808 218.395 92.5347 218.123C92.753 217.762 93.6334 218.064 94.1137 217.966C94.714 217.824 94.7358 216.278 94.4302 215.754H94.4338Z" fill="#223971"/>
<path fill-rule="evenodd" clip-rule="evenodd" d="M97.2789 216.387C99.0799 216.693 100.226 217.653 100.28 219.705C99.1199 219.931 97.4899 219.931 96.3293 219.705C96.5113 219.203 97.308 219.316 97.4354 218.756C97.4608 217.89 97.4536 217.053 97.2789 216.387Z" fill="#223971"/>
<path fill-rule="evenodd" clip-rule="evenodd" d="M124.773 219.545C123.951 220.047 121.491 220.025 120.666 219.545C120.676 217.551 122.401 216.434 123.984 216.544C123.547 217.653 123.478 219.349 124.773 219.545Z" fill="#223971"/>
<path fill-rule="evenodd" clip-rule="evenodd" d="M100.124 217.177C101.27 217.293 102.278 217.548 103.442 217.65C103.726 218.443 103.882 219.436 103.442 220.178C102.474 220.749 100.957 220.72 99.8074 220.335C100.029 220.084 100.353 219.931 100.757 219.862C100.928 218.585 100.371 218.035 100.124 217.177Z" fill="#223971"/>
<path fill-rule="evenodd" clip-rule="evenodd" d="M120.822 217.177C120.356 218.072 119.701 219.84 120.978 220.338C120.298 220.95 118.784 220.546 117.817 220.495C117.264 220.113 117.176 218.556 117.5 217.81C118.562 217.559 119.654 217.333 120.818 217.177H120.822Z" fill="#223971"/>
<path fill-rule="evenodd" clip-rule="evenodd" d="M104.232 217.81C104.494 218.075 105.159 217.937 105.654 217.966C106.302 218.948 106.829 220.054 106.917 221.601C105.825 221.324 104.632 221.146 103.442 220.968C104.148 220.36 104.337 219.232 104.232 217.806V217.81Z" fill="#223971"/>
<path fill-rule="evenodd" clip-rule="evenodd" d="M116.871 217.81C116.882 218.61 116.511 219.33 116.871 220.022C116.096 219.796 115.434 219.458 114.659 219.232C114.713 218.075 115.794 217.944 116.871 217.81Z" fill="#223971"/>
<path fill-rule="evenodd" clip-rule="evenodd" d="M114.186 218.123C114.63 218.283 114.142 218.792 114.186 219.072C113.931 218.803 113.193 219.01 113.236 218.439C113.64 218.421 113.989 218.348 114.186 218.123Z" fill="#223971"/>
<path fill-rule="evenodd" clip-rule="evenodd" d="M106.6 218.283C107.812 218.283 108.547 218.759 109.762 218.756C109.209 219.571 108.634 220.364 107.393 220.495C107.142 219.745 106.8 219.087 106.604 218.283H106.6Z" fill="#223971"/>
<path fill-rule="evenodd" clip-rule="evenodd" d="M110.235 218.756C111.148 219.261 112.389 219.447 113.553 219.705C112.967 220.786 110.136 220.655 109.129 220.338C109.332 219.643 110.311 219.731 110.235 218.759V218.756Z" fill="#223971"/>
<path fill-rule="evenodd" clip-rule="evenodd" d="M117.977 221.441C117.504 222.023 117.064 222.634 116.238 222.863C115.368 222.467 115.244 221.328 114.026 221.284C114.36 222.161 115.947 223.154 116.394 224.446C115.579 224.624 114.644 223.565 113.549 223.496C113.469 222.576 113.102 221.943 112.916 221.128C113.975 219.065 116.369 220.935 117.973 221.444L117.977 221.441Z" fill="#223971"/>
<path fill-rule="evenodd" clip-rule="evenodd" d="M108.812 220.495C108.961 221.601 111.199 220.618 112.287 221.128C112.581 221.673 112.854 222.248 112.76 223.183C111.261 222.154 108.194 222.692 107.386 220.971C107.957 220.909 108.441 220.76 108.809 220.498L108.812 220.495Z" fill="#223971"/>
<path fill-rule="evenodd" clip-rule="evenodd" d="M102.336 221.757C103.031 222.274 103.431 223.085 104.392 223.336C104.072 226.174 100.852 226.119 100.124 228.55C99.5019 228.433 98.978 228.219 98.385 228.077C98.1558 227.567 98.2358 226.752 98.2285 226.021C98.6869 225.846 99.3491 225.879 99.8075 225.705C100.095 226.101 100.135 226.745 100.597 226.967C100.655 225.803 100.699 223.711 101.07 222.387C101.496 222.179 101.91 221.961 102.332 221.753L102.336 221.757Z" fill="#223971"/>
<path fill-rule="evenodd" clip-rule="evenodd" d="M103.442 221.757C103.948 221.935 104.49 222.077 105.181 222.074C105.312 222.521 104.959 222.485 105.025 222.863C104.243 222.75 103.624 222.474 103.446 221.757H103.442Z" fill="#223971"/>
<path fill-rule="evenodd" clip-rule="evenodd" d="M120.189 222.707C120.32 223.733 119.927 224.235 119.556 224.762C118.701 224.853 117.937 225.039 117.187 225.235C116.885 224.802 116.583 224.366 116.554 223.656C117.482 222.547 118.923 220.953 120.189 222.707Z" fill="#223971"/>
<path fill-rule="evenodd" clip-rule="evenodd" d="M107.55 222.707C107.331 224.017 105.691 223.9 104.705 224.446C104.908 223.249 106.149 221.688 107.55 222.707Z" fill="#223971"/>
<path fill-rule="evenodd" clip-rule="evenodd" d="M100.124 223.023C100.608 223.62 99.9276 224.402 100.124 225.235H97.7556C98.2395 224.191 99.3492 223.776 100.124 223.023Z" fill="#223971"/>
<path fill-rule="evenodd" clip-rule="evenodd" d="M112.447 223.969C112.279 235.022 112.036 245.995 112.13 257.31C111.221 256.957 110.351 256.56 109.602 256.047C109.543 245.1 109.289 234.345 109.129 223.5C109.616 222.485 111.544 223.849 112.447 223.973V223.969Z" fill="#223971"/>
<path fill-rule="evenodd" clip-rule="evenodd" d="M120.665 223.023C121.797 223.42 122.634 224.107 123.194 225.079C122.474 225.428 120.953 225.217 120.192 225.079C120.331 224.373 120.669 223.871 120.665 223.023Z" fill="#223971"/>
<path fill-rule="evenodd" clip-rule="evenodd" d="M122.878 226.025V228.08C122.314 228.306 121.75 228.532 120.982 228.553C120.003 227.531 119.039 226.494 117.98 225.552C119.68 224.853 121 226.014 122.878 226.025Z" fill="#223971"/>
<path fill-rule="evenodd" clip-rule="evenodd" d="M123.507 225.392C124.14 225.865 124.693 226.418 124.93 227.287C124.544 227.586 124.147 227.877 123.351 227.76C123.281 226.847 123.416 226.141 123.507 225.392Z" fill="#223971"/>
<path fill-rule="evenodd" clip-rule="evenodd" d="M97.7519 225.552C97.6828 226.272 97.912 227.291 97.5955 227.764C97.1516 227.68 96.7732 227.531 96.333 227.447C96.4676 226.476 96.9624 225.865 97.7556 225.552H97.7519Z" fill="#223971"/>
<path fill-rule="evenodd" clip-rule="evenodd" d="M94.2775 171.83C95.358 173.7 97.4209 174.584 99.1745 175.781C101.379 174.937 104.585 175.155 107.39 175.308C107.313 177.676 107.783 179.812 107.546 181.471C105.571 181.606 104.213 181.115 103.122 180.365C104.141 178.961 106.349 178.746 106.44 176.414C104.21 177.043 103.482 180.034 100.437 180.205C98.9926 180.285 97.6428 179.59 96.3294 178.943C97.1698 177.938 98.1049 177.029 98.6979 175.781C97.4464 175.166 97.0789 176.872 96.4859 177.52C95.067 179.063 92.7239 180.252 89.6933 179.732C89.1912 179.234 88.7073 178.717 88.5873 177.837C87.0592 178.24 88.3944 179.725 88.9038 180.365C91.0649 181.053 93.9246 180.547 95.3835 179.576C97.2499 181.307 99.6657 180.369 102.02 180.838C103.486 181.133 104.73 183.378 107.55 182.734C107.342 184.618 108.31 186.401 107.706 188.264C106.815 191.018 101.456 191.029 99.964 188.897C100.452 186.888 102.926 186.092 102.809 184C99.8476 184.873 99.0545 191.753 93.9609 190.792C92.8404 190.581 91.3014 189.031 91.5924 187.631C91.7998 186.63 93.9464 185.604 94.9105 184.786C95.4781 184.305 95.9801 183.654 96.4895 183.207C96.9261 182.821 98.083 182.486 97.4391 181.784C96.3876 181.544 95.6127 182.93 94.7541 183.68C93.8736 184.447 92.8695 185.117 91.909 185.892C89.8898 187.521 87.9142 189.552 85.7458 189.843C83.9558 190.083 81.5728 189.632 81.4782 188.42C81.3836 187.194 84.4943 185.546 85.4293 184.786C86.106 184.236 86.8446 183.607 87.4849 183.046C88.067 182.537 89.3004 181.842 88.5909 180.991C87.0556 181.846 85.4293 183.727 83.5338 185.259C81.8202 186.641 79.71 188.824 78.0037 189.21C76.3046 189.592 72.6409 189.202 72.7901 187.471C72.8701 186.517 75.5042 185.095 76.4247 184.309C76.9922 183.825 77.6253 183.225 78.1637 182.73C78.6513 182.279 79.7864 181.715 79.1133 180.991C77.7272 181.809 76.1263 183.428 74.2163 184.942C72.5281 186.277 70.6654 188.362 69.0027 188.893C67.2927 189.435 63.7891 189.435 63.3161 187.471C65.6264 184.356 69.7522 183.057 71.6913 179.572C70.5926 179.506 69.8795 180.696 69.0063 181.467C68.195 182.181 67.2709 182.781 66.3213 183.523C64.5204 184.931 62.7995 187.005 60.7912 187.631C59.4996 188.034 57.1421 188.358 55.8942 187.947C56.0288 187.289 55.5886 187.201 55.5776 186.685C60.2309 183.596 64.6259 180.249 68.6934 176.574C69.4647 177.382 70.1087 178.32 70.9055 179.103C74.1763 179.623 76.5557 178.48 78.0146 176.734C77.9273 179.83 82.1403 180.969 84.9672 180.052C88.8128 178.808 91.8544 173.667 94.2884 171.837L94.2775 171.83ZM91.7489 178.782C93.1823 177.949 94.8559 176.519 95.2234 175.148C94.1174 176.308 92.3456 177.644 91.7489 178.782ZM99.491 178.626C101.256 178.284 101.95 176.872 103.126 175.941C101.168 176.09 100.684 177.713 99.491 178.626ZM57.9352 186.368C62.694 185.437 65.1062 182.162 68.2059 179.576C64.6477 181.708 62.1083 184.855 57.9352 186.368ZM66.7834 187.474C70.3416 186.241 71.8442 182.952 74.3691 180.682C71.3566 182.359 69.4939 186.026 66.7834 187.474ZM76.1045 188.424C78.3493 186.612 81.6528 185.018 81.9511 181.788C81.0052 184.898 77.4616 186.252 76.1045 188.424ZM93.8009 189.057C96.5004 187.751 98.0903 185.342 99.8039 183.054C97.4536 184.706 95.9438 187.198 93.8009 189.057ZM102.966 189.373C103.464 189.45 103.522 189.09 104.072 189.217C104.65 187.576 107.015 186.063 105.811 183.687C105.505 186.226 104.079 187.645 102.966 189.373ZM85.4257 187.318C88.027 187.54 89.988 185.779 91.1122 184C91.2796 183.992 91.2359 183.796 90.9558 183.843C89.6424 185.535 87.7032 186.594 85.4257 187.318Z" fill="#223971"/>
<path fill-rule="evenodd" clip-rule="evenodd" d="M123.35 175.777C123.241 176.952 125.33 178.099 125.406 179.095C121.378 181.839 117.38 178.677 115.295 176.25C115.288 178.575 117.282 178.899 118.457 180.041C117.955 181.54 115.928 181.515 113.876 181.464V175.301C116.685 175.144 120.236 174.86 122.408 175.774C124.096 174.511 126.625 174.093 127.305 171.823C129.514 173.773 131.413 176.039 133.625 177.986C133.014 177.72 132.773 179.215 132.202 179.565C129.994 180.929 126.53 179.063 125.093 177.353C124.456 176.596 124.562 175.41 123.354 175.774L123.35 175.777ZM130.459 178.306C128.942 177.24 127.731 175.872 126.352 174.671C127.287 176.214 128.56 178.255 130.459 178.306ZM122.717 179.412C121.389 178.579 120.396 176.57 119.243 176.094C120.061 177.538 120.844 179.023 122.717 179.412Z" fill="#223971"/>
<path fill-rule="evenodd" clip-rule="evenodd" d="M124.14 201.376C121.764 200.63 118.493 203.413 117.031 201.219C117.853 200.99 118.683 200.765 119.243 200.27C119.417 200.834 119.694 201.292 120.349 201.376C120.818 201.376 120.553 200.63 120.822 200.426C120.753 200.073 120.043 200.361 119.716 200.27C121.575 199.026 124.784 197.869 127.141 199.32C126.989 199.957 126.818 200.579 126.668 201.216C124.951 201.561 122.575 202.904 121.295 202.638C122.273 202.249 123.292 201.9 124.14 201.376Z" fill="#223971"/>
<path fill-rule="evenodd" clip-rule="evenodd" d="M135.517 209.435C135.586 210.875 134.673 212.698 132.988 212.909C132.49 212.88 132.559 212.283 132.515 211.803C131.038 212.611 132.57 214.43 133.938 213.382C133.436 214.725 132.195 215.325 130.303 215.278C129.372 213.058 132.395 212.549 132.672 210.537C134.141 210.69 134.927 210.159 135.517 209.431V209.435Z" fill="#223971"/>
<path fill-rule="evenodd" clip-rule="evenodd" d="M126.669 215.598C126.578 215.82 126.425 217.089 126.669 217.81C127.414 217.748 127.986 217.861 128.564 217.966C127.596 218.734 126.123 218.999 124.296 218.916C123.983 217.948 124.591 217.162 124.613 216.071C125.301 215.914 126.115 215.889 126.669 215.598Z" fill="#223971"/>
<path fill-rule="evenodd" clip-rule="evenodd" d="M110.235 160.609C114.841 159.605 114.171 166.838 109.918 165.667C108.241 165.205 107.411 161.224 110.235 160.609Z" fill="#223971"/>
<path fill-rule="evenodd" clip-rule="evenodd" d="M98.7014 174.042C94.2701 173.176 95.0268 168.173 91.4322 166.616C90.519 166.22 89.2675 166.034 88.4307 165.983C79.4552 165.437 71.5784 174.089 66.1502 177.516C59.7578 182.395 54.1695 188.078 45.2922 190.472C51.972 188.38 57.5385 184 62.672 179.885C70.4979 173.612 79.8736 162.581 92.5346 162.661C98.8324 162.701 100.037 167.62 98.6978 174.038L98.7014 174.042ZM84.4796 165.35C90.6646 162.985 96.875 165.154 97.4353 171.513C98.072 164.491 89.6459 162.287 84.4796 165.35Z" fill="#223971"/>
<path fill-rule="evenodd" clip-rule="evenodd" d="M176.283 190.316C169.265 188.751 163.397 183.774 157.481 179.099C151.689 174.522 146.129 169.461 139.468 166.933C136.441 165.783 131.5 165.554 129.197 167.406C126.81 169.327 126.938 173.369 123.194 174.198C121.91 168.166 122.681 162.887 128.881 162.665C134.633 162.458 139.122 164.954 143.102 167.406C154.254 174.282 163.069 185.99 176.283 190.316ZM125.246 166.929C124.344 168.17 123.358 171.16 124.457 172.303C124.387 167.908 126.232 165.306 129.987 164.877C134.12 164.404 136.885 166.231 139.624 165.983C135.411 164.335 127.891 163.291 125.246 166.933V166.929Z" fill="#223971"/>
<path fill-rule="evenodd" clip-rule="evenodd" d="M114.186 167.246C114.237 167.613 114.16 167.853 114.029 168.035C112.745 168.937 109.492 168.446 107.71 168.352V166.929C109.354 166.5 113 166.227 114.189 167.246H114.186Z" fill="#223971"/>
<path fill-rule="evenodd" clip-rule="evenodd" d="M94.1174 170.88C92.8185 172.274 91.0649 173.896 89.3768 175.461C87.7032 177.011 86.1169 179.008 84.1632 179.412C81.6637 179.928 78.3457 178.902 78.7895 176.25C78.9605 175.235 80.6305 173.933 81.6346 172.932C82.737 171.83 84.2141 171.022 84.1632 169.77C83.1408 169.549 82.5478 170.844 81.9511 171.51C80.2739 173.376 77.7745 176.279 75.6315 177.673C74.8166 178.2 73.1685 178.419 71.524 178.306C70.8254 177.691 70.0614 177.138 69.7849 176.094C74.1471 173.012 80.9506 166.129 88.5873 166.773C91.3814 167.005 93.0768 168.497 94.1174 170.88ZM80.8451 178.149C84.789 176.512 86.4807 172.619 89.3768 169.934C89.4131 169.734 89.6242 169.61 89.2203 169.618C86.3934 172.426 83.9813 175.65 80.8451 178.149ZM71.997 177.36C73.998 175.621 76.9049 173.947 77.8436 171.673C76.1227 173.798 73.3904 174.908 71.997 177.36Z" fill="#223971"/>
<path fill-rule="evenodd" clip-rule="evenodd" d="M152.107 176.094C151.772 177.182 150.826 177.655 150.051 178.306C143.059 178.24 142.007 172.234 137.569 169.614C137.467 171.099 139.006 171.997 139.937 172.932C140.952 173.947 141.931 175.061 142.939 175.934C142.935 178.499 141.025 180.158 137.409 179.408C134.942 178.899 131.897 175.002 129.983 173.089C129.306 172.412 127.949 171.36 127.927 170.72C127.898 169.716 129.681 167.853 130.612 167.402C131.416 167.013 132.348 166.835 133.141 166.769C141.04 166.14 147.326 173.063 152.1 176.09L152.107 176.094ZM150.211 177.356C149.731 175.966 148.098 175.432 147.05 174.671C145.867 173.813 144.896 172.725 143.575 172.143C143.575 171.983 143.299 171.943 143.259 172.143C145.38 174.078 147.647 175.868 150.211 177.356Z" fill="#223971"/>
<path fill-rule="evenodd" clip-rule="evenodd" d="M108.812 169.458C110.187 169.458 111.803 169.05 113.08 169.458C112.796 185.71 112.76 202.213 112.447 218.439C111.104 218.41 110.118 218.028 109.129 217.65C108.958 202.282 108.605 185.873 108.656 169.774C108.59 169.469 108.765 169.203 108.812 169.458Z" fill="#223971"/>
<path fill-rule="evenodd" clip-rule="evenodd" d="M123.034 183.363C124.416 185.56 126.77 188.158 129.67 189.366C129.208 190.181 128.44 190.665 127.614 190.789C123.088 191.462 122.059 185.451 118.923 184.309C119.181 185.895 120.956 187.329 121.924 188.733C120.84 191.149 114.67 190.796 113.865 188.416V182.413C116.47 182.65 118.22 182.028 119.396 180.834C122.168 181.344 124.787 180.612 126.348 179.412C128.167 180.947 133.614 181.824 133.774 178.149C135.651 180.707 143.517 181.726 143.572 176.727C145.351 179.59 151.696 180.22 153.209 176.727C157.215 180.201 161.268 183.625 165.848 186.525C165.808 187.063 165.448 187.285 165.532 187.947C157.444 188.187 155.236 181.708 150.048 179.572C150.2 180.551 151.088 181.358 151.787 181.94C153.886 183.687 156.415 185.269 158.423 187.314C158.125 188.016 157.812 188.704 157 188.893C154.581 187.019 151.477 185.932 149.575 183.519C149.116 182.941 149.04 181.868 148.152 181.624C149.298 185.007 153.067 187.139 156.367 188.893C152.602 189.766 150.812 187.689 148.309 185.731C145.66 183.661 144.769 182.417 142.462 180.834C141.763 181.577 142.888 182.279 143.412 182.73C143.979 183.221 144.572 183.814 145.151 184.309C146.264 185.262 150.528 187.365 147.996 188.889C146.77 189.628 143.895 189.308 142.939 188.889C141.287 188.165 139.475 186.201 137.725 184.782C136.87 184.091 135.975 183.414 135.196 182.726C134.447 182.064 133.61 180.645 132.668 181.304C134.356 183.778 137.94 185.721 140.254 188.096C139.755 190.436 135.702 190.174 134.09 189.359C133.33 188.973 132.613 187.991 131.722 187.303C129.419 185.535 126.588 183.305 124.453 181.617C124.544 182.941 125.963 183.916 126.981 184.778C128.062 185.691 129.306 186.463 130.143 187.463C130.267 188.165 129.932 188.413 129.986 189.042C126.748 188.067 125.348 185.255 123.034 183.356V183.363ZM154.792 180.678C156.131 181.886 157.772 182.981 159.372 183.996C160.962 185.004 162.549 186.346 164.43 186.525C161.515 184.065 157.673 182.537 154.792 180.045V180.678ZM138.358 183.046C139.271 183.534 140.199 184.418 141.203 185.102C142.167 185.757 143.317 186.75 144.205 186.525C142.56 185.429 140.166 183.716 138.202 182.417C137.885 182.741 138.271 182.726 138.358 183.05V183.046ZM137.725 187.471C136.615 186.765 135.316 186.081 134.09 185.415C132.832 184.735 131.755 183.8 130.616 183.519C132.359 185.357 135.215 186.925 137.725 187.471ZM118.606 189.366C117.082 187.944 115.688 186.386 114.815 184.309C114.63 184.287 114.459 184.029 114.342 184.309C115.288 186.47 116.223 188.642 118.61 189.366H118.606Z" fill="#223971"/>
<path fill-rule="evenodd" clip-rule="evenodd" d="M58.4081 188.893C56.0796 192.116 49.1379 193.601 44.1863 191.738C48.5449 191.145 51.7756 189.424 54.6134 187.314C55.1264 188.558 56.4398 189.599 58.4045 188.893H58.4081ZM50.193 190.789C49.3926 190.96 48.1665 190.487 47.8245 191.578C50.826 191.367 53.9258 190.41 54.9336 188.733C53.5292 189.315 51.9575 190.41 50.193 190.789Z" fill="#223971"/>
<path fill-rule="evenodd" clip-rule="evenodd" d="M166.802 187.471C170.138 189.086 172.718 191.458 177.545 191.578C173.536 193.281 166.136 192.67 164.43 189.21C165.75 189.162 166.489 188.529 166.798 187.471H166.802ZM166.485 188.733C166.362 188.769 166.303 188.864 166.329 189.049C167.431 189.588 168.948 190.381 170.436 190.945C171.877 191.491 174.02 192.513 174.704 191.578C171.786 190.909 169.025 189.257 166.489 188.733H166.485Z" fill="#223971"/>
<path fill-rule="evenodd" clip-rule="evenodd" d="M62.3593 187.631C63.0687 189.188 64.4149 190.105 66.7834 189.999C64.6477 193.226 57.5386 195.402 53.1946 193.001C57.2585 192.218 58.7138 188.828 62.3593 187.627V187.631ZM55.8796 193.004C58.9066 193.339 61.1841 191.571 62.9887 190.159C60.5765 191.065 58.7356 192.542 55.8796 193.004Z" fill="#223971"/>
<path fill-rule="evenodd" clip-rule="evenodd" d="M74.209 189.843C72.4845 193.19 68.4424 195.227 63.4653 193.95C64.7132 192.302 67.129 191.822 68.0459 189.843C69.9596 189.912 70.7054 188.813 71.6804 187.947C72.4918 188.609 72.7719 189.806 74.209 189.843ZM67.5729 193.317C68.919 192.557 70.4762 191.167 70.7345 189.843C69.6285 190.952 68.3733 191.905 67.5729 193.317Z" fill="#223971"/>
<path fill-rule="evenodd" clip-rule="evenodd" d="M149.735 187.947C151.055 189.468 153.744 189.624 154.948 191.265C153.417 191.425 151.736 190.37 150.051 190.159C152.416 191.742 156.396 191.716 158.426 193.634C153.904 195.435 148.814 193.273 147.523 189.843C148.727 189.679 149.265 188.846 149.735 187.947Z" fill="#223971"/>
<path fill-rule="evenodd" clip-rule="evenodd" d="M161.745 188.577C163.127 190.774 165.208 192.277 168.224 192.844C164.033 195.413 156.593 192.739 155.269 189.999C157.408 190.083 158.761 189.384 159.376 187.943C160.195 188.125 160.609 188.711 161.745 188.577ZM164.43 192.528C162.494 192.04 161.144 190.97 159.533 190.159H159.216C160.133 191.567 162.359 193.324 164.43 192.528Z" fill="#223971"/>
<path fill-rule="evenodd" clip-rule="evenodd" d="M90.6427 188.103C91.032 192.156 97.2097 192.688 99.0179 189.526C100.437 191.603 105.814 192.4 107.55 190.159C107.917 191.687 107.604 193.899 107.706 195.689C105.108 196.551 101.827 195.94 99.4908 195.216C100.073 194.379 102.314 193.859 101.386 192.531C99.1816 194.012 96.784 196.126 92.2217 195.849C91.243 195.791 90.3443 195.522 89.3766 195.216C89.9405 194.03 92.1416 193.681 91.9051 192.215C90.3079 192.506 89.4166 194.449 87.6375 195.216C84.7524 196.46 80.914 195.729 77.9998 194.427C79.5606 193.252 81.9109 192.862 82.5804 190.792C81.2997 190.872 80.4047 192.131 79.1058 192.848C77.1667 193.917 74.8055 194.714 71.8367 193.954C72.9682 192.611 74.3179 191.483 75.3112 190.003C77.596 190.181 79.2987 189.777 80.3683 188.74C82.4348 192.244 88.7071 190.465 90.639 188.107L90.6427 188.103ZM75.3148 193.634C76.479 193.27 77.2722 192.535 77.8434 191.578C76.7046 191.967 76.0243 192.815 75.3148 193.634ZM82.7404 194.583C84.5304 194.423 85.9275 193.033 86.2149 191.898C85.2726 193.011 83.9047 193.695 82.7404 194.583ZM103.755 194.427C104.21 196.049 105.57 194.103 105.81 193.164C105.487 193.117 105.501 192.739 105.177 192.691C104.85 193.419 104.515 194.136 103.755 194.43V194.427ZM93.0111 194.583C94.7539 195.329 96.7549 194.299 97.7518 193.321C96.4165 193.372 94.954 194.62 93.0111 194.583Z" fill="#223971"/>
<path fill-rule="evenodd" clip-rule="evenodd" d="M131.093 188.26C132.537 190.076 139.166 192.477 141.047 188.733C142.506 189.588 143.979 190.356 146.26 189.995C147.323 191.302 149.033 192.804 149.735 193.947C145.213 195.078 141.873 192.63 139.464 190.629C139.377 190.858 139.217 191.014 138.991 191.102C140.097 192.524 141.8 193.35 143.415 194.263C140.723 196.541 135.007 196.097 132.511 194.107C131.66 193.426 131.093 192.171 129.826 192.211C129.863 193.354 131.467 194.241 132.355 195.056C131.198 195.751 129.906 195.984 127.931 195.846C124.635 195.617 122.408 193.921 120.189 192.684C119.807 194.034 121.666 194.318 122.401 195.053C120.222 196.028 118.097 193.252 116.238 192.368C116.314 194.19 119.319 194.445 120.505 195.686C118.639 196.271 115.706 196.344 113.869 195.686C113.629 194.085 114.011 192.138 113.869 190.156C115.783 191.52 118.261 191.869 120.662 190.945C121.066 190.789 122.281 189.537 122.557 189.523C123.19 189.49 125.308 191.687 126.825 191.735C128.724 191.793 130.711 190.243 131.093 188.26ZM138.991 194.896C138.518 194.791 139.144 194.558 138.991 194.263C136.903 193.612 136.051 191.724 134.094 190.945C135.258 192.626 137.507 194.063 138.991 194.896ZM128.247 195.053C127.272 193.972 126.228 192.964 125.246 191.891C125.264 193.204 127.163 194.809 128.247 195.053Z" fill="#223971"/>
<path fill-rule="evenodd" clip-rule="evenodd" d="M104.071 201.219C102.765 203.111 99.2799 201.354 97.2788 201.063C97.6026 202.216 99.1271 202.162 100.124 202.642C96.9405 202.944 94.6629 200.139 90.9592 201.379C90.61 200.917 91.1448 200.277 90.9592 199.484C91.6978 199.327 92.3599 199.091 93.3277 199.167C93.6988 199.64 93.1676 201.012 94.1172 200.906C94.5756 200.488 93.7643 200.004 93.9608 199.327C97.5663 197.115 101.033 200.401 104.071 201.223V201.219ZM100.597 201.219C101.044 201.35 101.008 200.997 101.386 201.063C101.656 199.433 99.4982 200.401 100.597 201.219Z" fill="#223971"/>
<path fill-rule="evenodd" clip-rule="evenodd" d="M127.931 199.164C128.648 199.287 129.393 199.386 129.986 199.637C129.648 200.444 130.183 200.503 130.303 201.216C129.019 201.412 128.215 200.579 127.141 201.059C127.582 200.604 128.076 200.204 127.931 199.164Z" fill="#223971"/>
<path fill-rule="evenodd" clip-rule="evenodd" d="M90.4865 199.797C89.9989 200.219 89.7843 201.59 90.803 201.692C90.2354 202.598 88.6528 203.752 87.6414 202.798C87.7651 200.972 88.9911 200.252 90.4865 199.797Z" fill="#223971"/>
<path fill-rule="evenodd" clip-rule="evenodd" d="M130.776 199.953C132.104 200.415 133.079 201.23 133.305 202.798C133.035 202.791 132.897 202.915 132.832 203.115C131.656 202.973 130.798 202.515 130.303 201.692C131.311 201.911 130.903 200.408 130.776 199.953Z" fill="#223971"/>
<path fill-rule="evenodd" clip-rule="evenodd" d="M86.8519 202.638C87.2557 203.235 87.5395 203.952 88.7474 203.744C88.7547 204.385 88.4309 204.69 88.1143 205.007C86.7245 205.109 85.8004 203.577 86.8519 202.638Z" fill="#223971"/>
<path fill-rule="evenodd" clip-rule="evenodd" d="M133.938 202.638C135.004 204.05 135.815 205.709 135.677 208.325C134.833 208.954 134.214 209.813 132.832 209.904C132.872 209.209 133.083 208.681 132.988 207.848C134.029 207.601 135.724 207.244 135.2 205.953C134.501 206.255 133.894 206.648 133.144 206.902C132.835 206.629 132.802 206.084 132.828 205.48C133.639 205.607 133.865 205.149 134.567 205.163C134.567 204.745 134.625 204.261 134.411 204.057C133.785 204.326 133.195 204.636 132.515 204.847C132.49 204.399 132.224 204.188 132.198 203.741C133.137 204.305 133.868 203.453 133.938 202.635V202.638Z" fill="#223971"/>
<path fill-rule="evenodd" clip-rule="evenodd" d="M85.7456 204.694C86.4514 205.043 86.939 205.607 88.1141 205.483C88.1287 206.287 87.783 206.731 87.7976 207.539C86.2441 207.379 84.9161 206.324 85.742 204.694H85.7456Z" fill="#223971"/>
<path fill-rule="evenodd" clip-rule="evenodd" d="M85.269 207.539C86.1531 208.128 88.1141 207.645 88.1141 209.118C87.8413 209.886 86.6625 210.275 85.7456 209.907C85.5128 209.191 85.44 208.318 85.2727 207.539H85.269Z" fill="#223971"/>
<path fill-rule="evenodd" clip-rule="evenodd" d="M88.2743 210.38C88.7037 211.366 89.0711 212.116 88.4308 213.065C87.0519 212.814 86.1896 212.043 85.5857 211.01C86.2479 210.566 87.4084 210.621 88.2707 210.377L88.2743 210.38Z" fill="#223971"/>
<path fill-rule="evenodd" clip-rule="evenodd" d="M89.2203 212.436C90.1371 212.985 91.7488 213.829 90.7993 215.281C88.7364 215.448 87.7868 214.503 86.8481 213.542C87.1174 213.182 87.7395 213.8 88.2707 213.698C88.8455 213.538 89.0856 213.04 89.2203 212.436Z" fill="#223971"/>
<path fill-rule="evenodd" clip-rule="evenodd" d="M91.5923 214.332C93.044 214.655 94.5102 215.685 93.9608 217.493C92.1344 217.268 90.3663 216.98 89.2202 216.071C89.926 215.827 90.8574 215.812 91.5887 215.598V214.335L91.5923 214.332Z" fill="#223971"/>
<path fill-rule="evenodd" clip-rule="evenodd" d="M129.67 215.598C130.314 215.878 131.26 215.867 131.726 215.914C130.805 217.049 129.037 217.337 127.145 217.493C126.49 215.627 128.04 214.881 129.201 214.332C129.746 214.364 129.488 215.201 129.674 215.594L129.67 215.598Z" fill="#223971"/>
<path fill-rule="evenodd" clip-rule="evenodd" d="M94.4338 215.754C94.9505 215.507 95.9837 216.096 96.6459 216.227C96.7259 216.984 97.1734 218.053 96.8023 218.756C95.2415 219.29 93.808 218.395 92.5347 218.123C92.753 217.762 93.6334 218.064 94.1137 217.966C94.714 217.824 94.7358 216.278 94.4302 215.754H94.4338Z" fill="#223971"/>
<path fill-rule="evenodd" clip-rule="evenodd" d="M97.2789 216.387C99.0799 216.693 100.226 217.653 100.28 219.705C99.1199 219.931 97.4899 219.931 96.3293 219.705C96.5113 219.203 97.308 219.316 97.4354 218.756C97.4608 217.89 97.4536 217.053 97.2789 216.387Z" fill="#223971"/>
<path fill-rule="evenodd" clip-rule="evenodd" d="M124.773 219.545C123.951 220.047 121.491 220.025 120.666 219.545C120.676 217.551 122.401 216.434 123.984 216.544C123.547 217.653 123.478 219.349 124.773 219.545Z" fill="#223971"/>
<path fill-rule="evenodd" clip-rule="evenodd" d="M100.124 217.177C101.27 217.293 102.278 217.548 103.442 217.65C103.726 218.443 103.882 219.436 103.442 220.178C102.474 220.749 100.957 220.72 99.8074 220.335C100.029 220.084 100.353 219.931 100.757 219.862C100.928 218.585 100.371 218.035 100.124 217.177Z" fill="#223971"/>
<path fill-rule="evenodd" clip-rule="evenodd" d="M120.822 217.177C120.356 218.072 119.701 219.84 120.978 220.338C120.298 220.95 118.784 220.546 117.817 220.495C117.264 220.113 117.176 218.556 117.5 217.81C118.562 217.559 119.654 217.333 120.818 217.177H120.822Z" fill="#223971"/>
<path fill-rule="evenodd" clip-rule="evenodd" d="M104.232 217.81C104.494 218.075 105.159 217.937 105.654 217.966C106.302 218.948 106.829 220.054 106.917 221.601C105.825 221.324 104.632 221.146 103.442 220.968C104.148 220.36 104.337 219.232 104.232 217.806V217.81Z" fill="#223971"/>
<path fill-rule="evenodd" clip-rule="evenodd" d="M116.871 217.81C116.882 218.61 116.511 219.33 116.871 220.022C116.096 219.796 115.434 219.458 114.659 219.232C114.713 218.075 115.794 217.944 116.871 217.81Z" fill="#223971"/>
<path fill-rule="evenodd" clip-rule="evenodd" d="M114.186 218.123C114.63 218.283 114.142 218.792 114.186 219.072C113.931 218.803 113.193 219.01 113.236 218.439C113.64 218.421 113.989 218.348 114.186 218.123Z" fill="#223971"/>
<path fill-rule="evenodd" clip-rule="evenodd" d="M106.6 218.283C107.812 218.283 108.547 218.759 109.762 218.756C109.209 219.571 108.634 220.364 107.393 220.495C107.142 219.745 106.8 219.087 106.604 218.283H106.6Z" fill="#223971"/>
<path fill-rule="evenodd" clip-rule="evenodd" d="M110.235 218.756C111.148 219.261 112.389 219.447 113.553 219.705C112.967 220.786 110.136 220.655 109.129 220.338C109.332 219.643 110.311 219.731 110.235 218.759V218.756Z" fill="#223971"/>
<path fill-rule="evenodd" clip-rule="evenodd" d="M117.977 221.441C117.504 222.023 117.064 222.634 116.238 222.863C115.368 222.467 115.244 221.328 114.026 221.284C114.36 222.161 115.947 223.154 116.394 224.446C115.579 224.624 114.644 223.565 113.549 223.496C113.469 222.576 113.102 221.943 112.916 221.128C113.975 219.065 116.369 220.935 117.973 221.444L117.977 221.441Z" fill="#223971"/>
<path fill-rule="evenodd" clip-rule="evenodd" d="M108.812 220.495C108.961 221.601 111.199 220.618 112.287 221.128C112.581 221.673 112.854 222.248 112.76 223.183C111.261 222.154 108.194 222.692 107.386 220.971C107.957 220.909 108.441 220.76 108.809 220.498L108.812 220.495Z" fill="#223971"/>
<path fill-rule="evenodd" clip-rule="evenodd" d="M102.336 221.757C103.031 222.274 103.431 223.085 104.392 223.336C104.072 226.174 100.852 226.119 100.124 228.55C99.5019 228.433 98.978 228.219 98.385 228.077C98.1558 227.567 98.2358 226.752 98.2285 226.021C98.6869 225.846 99.3491 225.879 99.8075 225.705C100.095 226.101 100.135 226.745 100.597 226.967C100.655 225.803 100.699 223.711 101.07 222.387C101.496 222.179 101.91 221.961 102.332 221.753L102.336 221.757Z" fill="#223971"/>
<path fill-rule="evenodd" clip-rule="evenodd" d="M103.442 221.757C103.948 221.935 104.49 222.077 105.181 222.074C105.312 222.521 104.959 222.485 105.025 222.863C104.243 222.75 103.624 222.474 103.446 221.757H103.442Z" fill="#223971"/>
<path fill-rule="evenodd" clip-rule="evenodd" d="M120.189 222.707C120.32 223.733 119.927 224.235 119.556 224.762C118.701 224.853 117.937 225.039 117.187 225.235C116.885 224.802 116.583 224.366 116.554 223.656C117.482 222.547 118.923 220.953 120.189 222.707Z" fill="#223971"/>
<path fill-rule="evenodd" clip-rule="evenodd" d="M107.55 222.707C107.331 224.017 105.691 223.9 104.705 224.446C104.908 223.249 106.149 221.688 107.55 222.707Z" fill="#223971"/>
<path fill-rule="evenodd" clip-rule="evenodd" d="M100.124 223.023C100.608 223.62 99.9276 224.402 100.124 225.235H97.7556C98.2395 224.191 99.3492 223.776 100.124 223.023Z" fill="#223971"/>
<path fill-rule="evenodd" clip-rule="evenodd" d="M112.447 223.969C112.279 235.022 112.036 245.995 112.13 257.31C111.221 256.957 110.351 256.56 109.602 256.047C109.543 245.1 109.289 234.345 109.129 223.5C109.616 222.485 111.544 223.849 112.447 223.973V223.969Z" fill="#223971"/>
<path fill-rule="evenodd" clip-rule="evenodd" d="M120.665 223.023C121.797 223.42 122.634 224.107 123.194 225.079C122.474 225.428 120.953 225.217 120.192 225.079C120.331 224.373 120.669 223.871 120.665 223.023Z" fill="#223971"/>
<path fill-rule="evenodd" clip-rule="evenodd" d="M122.878 226.025V228.08C122.314 228.306 121.75 228.532 120.982 228.553C120.003 227.531 119.039 226.494 117.98 225.552C119.68 224.853 121 226.014 122.878 226.025Z" fill="#223971"/>
<path fill-rule="evenodd" clip-rule="evenodd" d="M123.507 225.392C124.14 225.865 124.693 226.418 124.93 227.287C124.544 227.586 124.147 227.877 123.351 227.76C123.281 226.847 123.416 226.141 123.507 225.392Z" fill="#223971"/>
<path fill-rule="evenodd" clip-rule="evenodd" d="M97.7519 225.552C97.6828 226.272 97.912 227.291 97.5955 227.764C97.1516 227.68 96.7732 227.531 96.333 227.447C96.4676 226.476 96.9624 225.865 97.7556 225.552H97.7519Z" fill="#223971"/>
<path fill-rule="evenodd" clip-rule="evenodd" d="M94.2775 171.83C95.358 173.7 97.4209 174.584 99.1745 175.781C101.379 174.937 104.585 175.155 107.39 175.308C107.313 177.676 107.783 179.812 107.546 181.471C105.571 181.606 104.213 181.115 103.122 180.365C104.141 178.961 106.349 178.746 106.44 176.414C104.21 177.043 103.482 180.034 100.437 180.205C98.9926 180.285 97.6428 179.59 96.3294 178.943C97.1698 177.938 98.1049 177.029 98.6979 175.781C97.4464 175.166 97.0789 176.872 96.4859 177.52C95.067 179.063 92.7239 180.252 89.6933 179.732C89.1912 179.234 88.7073 178.717 88.5873 177.837C87.0592 178.24 88.3944 179.725 88.9038 180.365C91.0649 181.053 93.9246 180.547 95.3835 179.576C97.2499 181.307 99.6657 180.369 102.02 180.838C103.486 181.133 104.73 183.378 107.55 182.734C107.342 184.618 108.31 186.401 107.706 188.264C106.815 191.018 101.456 191.029 99.964 188.897C100.452 186.888 102.926 186.092 102.809 184C99.8476 184.873 99.0545 191.753 93.9609 190.792C92.8404 190.581 91.3014 189.031 91.5924 187.631C91.7998 186.63 93.9464 185.604 94.9105 184.786C95.4781 184.305 95.9801 183.654 96.4895 183.207C96.9261 182.821 98.083 182.486 97.4391 181.784C96.3876 181.544 95.6127 182.93 94.7541 183.68C93.8736 184.447 92.8695 185.117 91.909 185.892C89.8898 187.521 87.9142 189.552 85.7458 189.843C83.9558 190.083 81.5728 189.632 81.4782 188.42C81.3836 187.194 84.4943 185.546 85.4293 184.786C86.106 184.236 86.8446 183.607 87.4849 183.046C88.067 182.537 89.3004 181.842 88.5909 180.991C87.0556 181.846 85.4293 183.727 83.5338 185.259C81.8202 186.641 79.71 188.824 78.0037 189.21C76.3046 189.592 72.6409 189.202 72.7901 187.471C72.8701 186.517 75.5042 185.095 76.4247 184.309C76.9922 183.825 77.6253 183.225 78.1637 182.73C78.6513 182.279 79.7864 181.715 79.1133 180.991C77.7272 181.809 76.1263 183.428 74.2163 184.942C72.5281 186.277 70.6654 188.362 69.0027 188.893C67.2927 189.435 63.7891 189.435 63.3161 187.471C65.6264 184.356 69.7522 183.057 71.6913 179.572C70.5926 179.506 69.8795 180.696 69.0063 181.467C68.195 182.181 67.2709 182.781 66.3213 183.523C64.5204 184.931 62.7995 187.005 60.7912 187.631C59.4996 188.034 57.1421 188.358 55.8942 187.947C56.0288 187.289 55.5886 187.201 55.5776 186.685C60.2309 183.596 64.6259 180.249 68.6934 176.574C69.4647 177.382 70.1087 178.32 70.9055 179.103C74.1763 179.623 76.5557 178.48 78.0146 176.734C77.9273 179.83 82.1403 180.969 84.9672 180.052C88.8128 178.808 91.8544 173.667 94.2884 171.837L94.2775 171.83ZM91.7489 178.782C93.1823 177.949 94.8559 176.519 95.2234 175.148C94.1174 176.308 92.3456 177.644 91.7489 178.782ZM99.491 178.626C101.256 178.284 101.95 176.872 103.126 175.941C101.168 176.09 100.684 177.713 99.491 178.626ZM57.9352 186.368C62.694 185.437 65.1062 182.162 68.2059 179.576C64.6477 181.708 62.1083 184.855 57.9352 186.368ZM66.7834 187.474C70.3416 186.241 71.8442 182.952 74.3691 180.682C71.3566 182.359 69.4939 186.026 66.7834 187.474ZM76.1045 188.424C78.3493 186.612 81.6528 185.018 81.9511 181.788C81.0052 184.898 77.4616 186.252 76.1045 188.424ZM93.8009 189.057C96.5004 187.751 98.0903 185.342 99.8039 183.054C97.4536 184.706 95.9438 187.198 93.8009 189.057ZM102.966 189.373C103.464 189.45 103.522 189.09 104.072 189.217C104.65 187.576 107.015 186.063 105.811 183.687C105.505 186.226 104.079 187.645 102.966 189.373ZM85.4257 187.318C88.027 187.54 89.988 185.779 91.1122 184C91.2796 183.992 91.2359 183.796 90.9558 183.843C89.6424 185.535 87.7032 186.594 85.4257 187.318Z" fill="#223971"/>
<path fill-rule="evenodd" clip-rule="evenodd" d="M123.35 175.777C123.241 176.952 125.33 178.099 125.406 179.095C121.378 181.839 117.38 178.677 115.295 176.25C115.288 178.575 117.282 178.899 118.457 180.041C117.955 181.54 115.928 181.515 113.876 181.464V175.301C116.685 175.144 120.236 174.86 122.408 175.774C124.096 174.511 126.625 174.093 127.305 171.823C129.514 173.773 131.413 176.039 133.625 177.986C133.014 177.72 132.773 179.215 132.202 179.565C129.994 180.929 126.53 179.063 125.093 177.353C124.456 176.596 124.562 175.41 123.354 175.774L123.35 175.777ZM130.459 178.306C128.942 177.24 127.731 175.872 126.352 174.671C127.287 176.214 128.56 178.255 130.459 178.306ZM122.717 179.412C121.389 178.579 120.396 176.57 119.243 176.094C120.061 177.538 120.844 179.023 122.717 179.412Z" fill="#223971"/>
<path fill-rule="evenodd" clip-rule="evenodd" d="M124.14 201.376C121.764 200.63 118.493 203.413 117.031 201.219C117.853 200.99 118.683 200.765 119.243 200.27C119.417 200.834 119.694 201.292 120.349 201.376C120.818 201.376 120.553 200.63 120.822 200.426C120.753 200.073 120.043 200.361 119.716 200.27C121.575 199.026 124.784 197.869 127.141 199.32C126.989 199.957 126.818 200.579 126.668 201.216C124.951 201.561 122.575 202.904 121.295 202.638C122.273 202.249 123.292 201.9 124.14 201.376Z" fill="#223971"/>
<path fill-rule="evenodd" clip-rule="evenodd" d="M135.517 209.435C135.586 210.875 134.673 212.698 132.988 212.909C132.49 212.88 132.559 212.283 132.515 211.803C131.038 212.611 132.57 214.43 133.938 213.382C133.436 214.725 132.195 215.325 130.303 215.278C129.372 213.058 132.395 212.549 132.672 210.537C134.141 210.69 134.927 210.159 135.517 209.431V209.435Z" fill="#223971"/>
<path fill-rule="evenodd" clip-rule="evenodd" d="M126.669 215.598C126.578 215.82 126.425 217.089 126.669 217.81C127.414 217.748 127.986 217.861 128.564 217.966C127.596 218.734 126.123 218.999 124.296 218.916C123.983 217.948 124.591 217.162 124.613 216.071C125.301 215.914 126.115 215.889 126.669 215.598Z" fill="#223971"/>
</g>
<path d="M116.434 48.4321C117.971 48.4321 119.217 47.186 119.217 45.6489C119.217 44.1117 117.971 42.8656 116.434 42.8656C114.897 42.8656 113.651 44.1117 113.651 45.6489C113.651 47.186 114.897 48.4321 116.434 48.4321Z" fill="#223971"/>
</svg>
